%TF.GenerationSoftware,KiCad,Pcbnew,8.0.0*%
%TF.CreationDate,2024-03-25T21:44:14+01:00*%
%TF.ProjectId,expander-hw,65787061-6e64-4657-922d-68772e6b6963,rev?*%
%TF.SameCoordinates,Original*%
%TF.FileFunction,Plated,1,2,PTH,Mixed*%
%TF.FilePolarity,Positive*%
%FSLAX46Y46*%
G04 Gerber Fmt 4.6, Leading zero omitted, Abs format (unit mm)*
G04 Created by KiCad (PCBNEW 8.0.0) date 2024-03-25 21:44:14*
%MOMM*%
%LPD*%
G01*
G04 APERTURE LIST*
%TA.AperFunction,ViaDrill*%
%ADD10C,0.300000*%
%TD*%
G04 aperture for slot hole*
%TA.AperFunction,ComponentDrill*%
%ADD11C,0.600000*%
%TD*%
%TA.AperFunction,ComponentDrill*%
%ADD12C,0.650000*%
%TD*%
%TA.AperFunction,ComponentDrill*%
%ADD13C,1.000000*%
%TD*%
G04 APERTURE END LIST*
D10*
X112500000Y-102000000D03*
X114000000Y-93400000D03*
X114000000Y-94000000D03*
X114000000Y-94600000D03*
X114000000Y-95200000D03*
X114250000Y-102000000D03*
X117239720Y-102658809D03*
X117250000Y-100750000D03*
X117600000Y-96000000D03*
X117600000Y-96800000D03*
X119400000Y-93400000D03*
X120600000Y-96750000D03*
X121800000Y-102750000D03*
X125600000Y-95200000D03*
X127800000Y-96566205D03*
X128400000Y-106800000D03*
X130334358Y-103043761D03*
X130800000Y-95400000D03*
X130800000Y-96200000D03*
X130800000Y-97000000D03*
X130800000Y-106800000D03*
X131000000Y-102600000D03*
X131800000Y-106800000D03*
X132300000Y-92300000D03*
X132600000Y-101200000D03*
X133000000Y-100250000D03*
X135200000Y-106800000D03*
X135200000Y-107600000D03*
X136000000Y-97600000D03*
X137800000Y-105600000D03*
X138000000Y-93600000D03*
X138482959Y-100117041D03*
X143200000Y-100895000D03*
X143660000Y-104705000D03*
X144400000Y-95000000D03*
X144400000Y-96200000D03*
X144400000Y-97400000D03*
X145095000Y-106895000D03*
X145095000Y-110705000D03*
X145105000Y-98705000D03*
X145105000Y-104705000D03*
X146675000Y-94000000D03*
X146675000Y-100125000D03*
D11*
%TO.C,J2*%
X110600000Y-98860000D02*
X111400000Y-98860000D01*
X110600000Y-107500000D02*
X111400000Y-107500000D01*
X114650000Y-98860000D02*
X115750000Y-98860000D01*
X114650000Y-107500000D02*
X115750000Y-107500000D01*
D12*
%TO.C,J1*%
X118590000Y-108755000D03*
X118590000Y-110025000D03*
X119860000Y-108755000D03*
X119860000Y-110025000D03*
X121130000Y-108755000D03*
X121130000Y-110025000D03*
X122400000Y-108755000D03*
X122400000Y-110025000D03*
X123670000Y-108755000D03*
X123670000Y-110025000D03*
D13*
%TO.C,J3*%
X150000000Y-92925000D03*
X150000000Y-95465000D03*
X150000000Y-98005000D03*
X150000000Y-100545000D03*
X150000000Y-103085000D03*
X150000000Y-105625000D03*
X150000000Y-108165000D03*
X150000000Y-110705000D03*
X152540000Y-92925000D03*
X152540000Y-95465000D03*
X152540000Y-98005000D03*
X152540000Y-100545000D03*
X152540000Y-103085000D03*
X152540000Y-105625000D03*
X152540000Y-108165000D03*
X152540000Y-110705000D03*
M02*
