%TF.GenerationSoftware,KiCad,Pcbnew,8.0.0*%
%TF.CreationDate,2024-03-25T21:44:05+01:00*%
%TF.ProjectId,expander-hw,65787061-6e64-4657-922d-68772e6b6963,rev?*%
%TF.SameCoordinates,Original*%
%TF.FileFunction,Copper,L2,Bot*%
%TF.FilePolarity,Positive*%
%FSLAX46Y46*%
G04 Gerber Fmt 4.6, Leading zero omitted, Abs format (unit mm)*
G04 Created by KiCad (PCBNEW 8.0.0) date 2024-03-25 21:44:05*
%MOMM*%
%LPD*%
G01*
G04 APERTURE LIST*
%TA.AperFunction,ComponentPad*%
%ADD10O,2.100000X1.000000*%
%TD*%
%TA.AperFunction,ComponentPad*%
%ADD11O,1.800000X1.000000*%
%TD*%
%TA.AperFunction,ComponentPad*%
%ADD12R,1.000000X1.000000*%
%TD*%
%TA.AperFunction,ComponentPad*%
%ADD13O,1.000000X1.000000*%
%TD*%
%TA.AperFunction,ComponentPad*%
%ADD14R,1.700000X1.700000*%
%TD*%
%TA.AperFunction,ComponentPad*%
%ADD15O,1.700000X1.700000*%
%TD*%
%TA.AperFunction,ViaPad*%
%ADD16C,0.600000*%
%TD*%
%TA.AperFunction,Conductor*%
%ADD17C,0.400000*%
%TD*%
%TA.AperFunction,Conductor*%
%ADD18C,0.200000*%
%TD*%
G04 APERTURE END LIST*
D10*
%TO.P,J2,S1,SHIELD*%
%TO.N,GND*%
X115200000Y-98860000D03*
D11*
X111000000Y-98860000D03*
D10*
X115200000Y-107500000D03*
D11*
X111000000Y-107500000D03*
%TD*%
D12*
%TO.P,J1,1,VTref*%
%TO.N,+3.3V*%
X118590000Y-110025000D03*
D13*
%TO.P,J1,2,SWDIO/TMS*%
%TO.N,/SWDIO*%
X118590000Y-108755000D03*
%TO.P,J1,3,GND*%
%TO.N,GND*%
X119860000Y-110025000D03*
%TO.P,J1,4,SWCLK/TCK*%
%TO.N,/SWDCLK*%
X119860000Y-108755000D03*
%TO.P,J1,5,GND*%
%TO.N,GND*%
X121130000Y-110025000D03*
%TO.P,J1,6,SWO/TDO*%
%TO.N,/SWO*%
X121130000Y-108755000D03*
%TO.P,J1,7,KEY*%
%TO.N,unconnected-(J1-KEY-Pad7)*%
X122400000Y-110025000D03*
%TO.P,J1,8,NC/TDI*%
%TO.N,unconnected-(J1-NC{slash}TDI-Pad8)*%
X122400000Y-108755000D03*
%TO.P,J1,9,GNDDetect*%
%TO.N,GND*%
X123670000Y-110025000D03*
%TO.P,J1,10,~{RESET}*%
%TO.N,/~{RESET}*%
X123670000Y-108755000D03*
%TD*%
D14*
%TO.P,J3,1,Pin_1*%
%TO.N,+3.3V*%
X150000000Y-92925000D03*
D15*
%TO.P,J3,2,Pin_2*%
%TO.N,VBUS*%
X152540000Y-92925000D03*
%TO.P,J3,3,Pin_3*%
%TO.N,/SPI1_SCK*%
X150000000Y-95465000D03*
%TO.P,J3,4,Pin_4*%
%TO.N,/SPI1_MISO*%
X152540000Y-95465000D03*
%TO.P,J3,5,Pin_5*%
%TO.N,/SPI1_MOSI*%
X150000000Y-98005000D03*
%TO.P,J3,6,Pin_6*%
%TO.N,/SPI1_CS*%
X152540000Y-98005000D03*
%TO.P,J3,7,Pin_7*%
%TO.N,/SPI2_SCK*%
X150000000Y-100545000D03*
%TO.P,J3,8,Pin_8*%
%TO.N,/SPI2_MISO*%
X152540000Y-100545000D03*
%TO.P,J3,9,Pin_9*%
%TO.N,/SPI2_MOSI*%
X150000000Y-103085000D03*
%TO.P,J3,10,Pin_10*%
%TO.N,/SPI2_CS*%
X152540000Y-103085000D03*
%TO.P,J3,11,Pin_11*%
%TO.N,GND*%
X150000000Y-105625000D03*
%TO.P,J3,12,Pin_12*%
X152540000Y-105625000D03*
%TO.P,J3,13,Pin_13*%
%TO.N,/I2C3_SDA*%
X150000000Y-108165000D03*
%TO.P,J3,14,Pin_14*%
%TO.N,/I2C3_SCL*%
X152540000Y-108165000D03*
%TO.P,J3,15,Pin_15*%
%TO.N,/I2C1_SDA*%
X150000000Y-110705000D03*
%TO.P,J3,16,Pin_16*%
%TO.N,/I2C1_SCL*%
X152540000Y-110705000D03*
%TD*%
D16*
%TO.N,GND*%
X125600000Y-95200000D03*
X145105000Y-98705000D03*
X146675000Y-100125000D03*
X132300000Y-92300000D03*
X119400000Y-93400000D03*
X137800000Y-105600000D03*
X145105000Y-104705000D03*
X138482959Y-100117041D03*
X117600000Y-96000000D03*
X121800000Y-102750000D03*
X145095000Y-110705000D03*
X120600000Y-96750000D03*
X146675000Y-94000000D03*
X131800000Y-106800000D03*
X138000000Y-93600000D03*
X136000000Y-97600000D03*
X117600000Y-96800000D03*
X145095000Y-106895000D03*
%TO.N,/~{RESET}*%
X133000000Y-100250000D03*
%TO.N,Net-(J2-CC1)*%
X114250000Y-102000000D03*
X112500000Y-102000000D03*
%TO.N,VBUS*%
X114000000Y-93400000D03*
X114000000Y-94600000D03*
X114000000Y-95200000D03*
X117250000Y-100750000D03*
X117239720Y-102658809D03*
X114000000Y-94000000D03*
%TO.N,/I2C3_SDA*%
X131000000Y-102600000D03*
X135200000Y-106800000D03*
%TO.N,/I2C3_SCL*%
X135200000Y-107600000D03*
X130334358Y-103043761D03*
%TO.N,Net-(U1-BOOT0)*%
X130800000Y-106800000D03*
X128400000Y-106800000D03*
%TO.N,/SPI1_MISO*%
X144400000Y-96200000D03*
X130800000Y-96200000D03*
%TO.N,/SPI1_MOSI*%
X130800000Y-97000000D03*
X144400000Y-97400000D03*
%TO.N,/SPI1_SCK*%
X130800000Y-95400000D03*
X144400000Y-95000000D03*
%TO.N,/SPI2_SCK*%
X143200000Y-100895000D03*
X127800000Y-96566205D03*
%TO.N,/SPI2_CS*%
X143660000Y-104705000D03*
X132600000Y-101200000D03*
%TD*%
D17*
%TO.N,VBUS*%
X151015000Y-91400000D02*
X115900000Y-91400000D01*
D18*
%TO.N,/~{RESET}*%
X133000000Y-100250000D02*
X130150000Y-100250000D01*
X123670000Y-106730000D02*
X123670000Y-108755000D01*
X130150000Y-100250000D02*
X123670000Y-106730000D01*
%TO.N,Net-(J2-CC1)*%
X114250000Y-102000000D02*
X112500000Y-102000000D01*
%TO.N,VBUS*%
X117239720Y-102658809D02*
X117250000Y-102648529D01*
D17*
X114000000Y-94000000D02*
X114000000Y-93400000D01*
X114000000Y-95200000D02*
X114000000Y-94600000D01*
X114000000Y-94600000D02*
X114000000Y-94000000D01*
D18*
X117250000Y-102648529D02*
X117250000Y-100750000D01*
D17*
X114000000Y-93300000D02*
X114000000Y-93400000D01*
X115900000Y-91400000D02*
X114000000Y-93300000D01*
X152540000Y-92925000D02*
X151015000Y-91400000D01*
D18*
%TO.N,/I2C3_SDA*%
X135200000Y-106800000D02*
X131000000Y-102600000D01*
%TO.N,/I2C3_SCL*%
X135200000Y-107600000D02*
X135000000Y-107600000D01*
X135000000Y-107600000D02*
X130443761Y-103043761D01*
X130443761Y-103043761D02*
X130334358Y-103043761D01*
%TO.N,Net-(U1-BOOT0)*%
X128400000Y-106800000D02*
X130800000Y-106800000D01*
%TO.N,/SPI1_MISO*%
X144400000Y-96200000D02*
X130800000Y-96200000D01*
%TO.N,/SPI1_MOSI*%
X144000000Y-97000000D02*
X130800000Y-97000000D01*
X144400000Y-97400000D02*
X144000000Y-97000000D01*
%TO.N,/SPI1_SCK*%
X144400000Y-95000000D02*
X144000000Y-95400000D01*
X144000000Y-95400000D02*
X130800000Y-95400000D01*
%TO.N,/SPI2_SCK*%
X143095000Y-100895000D02*
X141200000Y-99000000D01*
X148205000Y-100545000D02*
X150000000Y-100545000D01*
X147855000Y-100895000D02*
X148205000Y-100545000D01*
X130200000Y-99000000D02*
X127800000Y-96600000D01*
X143200000Y-100895000D02*
X147855000Y-100895000D01*
X143200000Y-100895000D02*
X143400000Y-100895000D01*
X141200000Y-99000000D02*
X130200000Y-99000000D01*
X127800000Y-96600000D02*
X127800000Y-96566205D01*
X143200000Y-100895000D02*
X143095000Y-100895000D01*
%TO.N,/SPI2_CS*%
X143660000Y-104660000D02*
X140200000Y-101200000D01*
X140200000Y-101200000D02*
X132600000Y-101200000D01*
X143660000Y-104705000D02*
X143660000Y-104660000D01*
%TD*%
%TA.AperFunction,Conductor*%
%TO.N,GND*%
G36*
X120805000Y-109982213D02*
G01*
X120805000Y-110067787D01*
X120827030Y-110150000D01*
X120162970Y-110150000D01*
X120185000Y-110067787D01*
X120185000Y-109982213D01*
X120162970Y-109900000D01*
X120827030Y-109900000D01*
X120805000Y-109982213D01*
G37*
%TD.AperFunction*%
%TA.AperFunction,Conductor*%
G36*
X115430573Y-91019685D02*
G01*
X115476328Y-91072489D01*
X115486272Y-91141647D01*
X115457247Y-91205203D01*
X115451215Y-91211681D01*
X114072509Y-92590385D01*
X114048499Y-92609109D01*
X114043226Y-92612264D01*
X114043220Y-92612268D01*
X113625521Y-92990197D01*
X113621173Y-92994224D01*
X113620739Y-92994635D01*
X113613625Y-93001539D01*
X113610641Y-93004116D01*
X113607382Y-93007375D01*
X113519137Y-93122377D01*
X113463671Y-93256287D01*
X113463670Y-93256291D01*
X113444750Y-93399999D01*
X113444750Y-93400002D01*
X113449273Y-93434360D01*
X113450274Y-93454403D01*
X113450237Y-93455576D01*
X113458596Y-93505733D01*
X113459222Y-93509927D01*
X113463670Y-93543712D01*
X113465442Y-93550323D01*
X113467979Y-93562027D01*
X113487576Y-93679612D01*
X113487576Y-93720383D01*
X113467976Y-93837982D01*
X113465442Y-93849675D01*
X113463669Y-93856293D01*
X113459221Y-93890068D01*
X113458597Y-93894257D01*
X113455250Y-93914344D01*
X113450236Y-93944430D01*
X113449128Y-93953286D01*
X113447653Y-93965085D01*
X113447496Y-93966967D01*
X113446939Y-93979744D01*
X113445997Y-93990521D01*
X113444750Y-93999997D01*
X113444750Y-94000002D01*
X113449273Y-94034360D01*
X113450274Y-94054403D01*
X113450237Y-94055576D01*
X113458596Y-94105733D01*
X113459222Y-94109927D01*
X113463670Y-94143712D01*
X113465442Y-94150323D01*
X113467979Y-94162027D01*
X113487576Y-94279612D01*
X113487576Y-94320383D01*
X113467976Y-94437982D01*
X113465442Y-94449675D01*
X113463669Y-94456293D01*
X113459221Y-94490068D01*
X113458597Y-94494257D01*
X113454451Y-94519137D01*
X113450236Y-94544430D01*
X113449128Y-94553286D01*
X113447653Y-94565085D01*
X113447496Y-94566967D01*
X113446939Y-94579744D01*
X113445997Y-94590521D01*
X113444750Y-94599997D01*
X113444750Y-94600002D01*
X113449273Y-94634360D01*
X113450274Y-94654403D01*
X113450237Y-94655576D01*
X113458596Y-94705733D01*
X113459222Y-94709927D01*
X113463670Y-94743712D01*
X113465442Y-94750323D01*
X113467979Y-94762027D01*
X113487576Y-94879612D01*
X113487576Y-94920383D01*
X113467976Y-95037982D01*
X113465442Y-95049675D01*
X113463669Y-95056293D01*
X113459221Y-95090068D01*
X113458597Y-95094257D01*
X113454307Y-95119999D01*
X113450236Y-95144430D01*
X113449128Y-95153286D01*
X113447653Y-95165085D01*
X113447496Y-95166967D01*
X113446939Y-95179744D01*
X113445997Y-95190520D01*
X113444750Y-95199996D01*
X113444750Y-95200000D01*
X113463670Y-95343708D01*
X113463671Y-95343712D01*
X113519137Y-95477622D01*
X113519138Y-95477624D01*
X113519139Y-95477625D01*
X113607379Y-95592621D01*
X113722375Y-95680861D01*
X113856291Y-95736330D01*
X113983280Y-95753048D01*
X113999999Y-95755250D01*
X114000000Y-95755250D01*
X114000001Y-95755250D01*
X114014977Y-95753278D01*
X114143709Y-95736330D01*
X114277625Y-95680861D01*
X114392621Y-95592621D01*
X114480861Y-95477625D01*
X114536330Y-95343709D01*
X114555250Y-95200000D01*
X114550724Y-95165631D01*
X114549725Y-95145564D01*
X114549761Y-95144418D01*
X114541405Y-95094285D01*
X114540779Y-95090083D01*
X114536331Y-95056296D01*
X114534560Y-95049687D01*
X114532022Y-95037986D01*
X114512421Y-94920380D01*
X114512421Y-94879616D01*
X114532019Y-94762024D01*
X114534558Y-94750319D01*
X114536326Y-94743717D01*
X114536330Y-94743709D01*
X114540782Y-94709886D01*
X114541402Y-94705732D01*
X114549762Y-94655575D01*
X114552331Y-94635071D01*
X114552391Y-94634360D01*
X114552491Y-94633180D01*
X114553057Y-94620253D01*
X114553999Y-94609500D01*
X114554278Y-94607379D01*
X114555250Y-94600000D01*
X114550724Y-94565631D01*
X114549725Y-94545564D01*
X114549761Y-94544418D01*
X114541405Y-94494285D01*
X114540779Y-94490083D01*
X114536331Y-94456296D01*
X114534560Y-94449687D01*
X114532022Y-94437986D01*
X114512421Y-94320380D01*
X114512421Y-94279616D01*
X114532019Y-94162024D01*
X114534558Y-94150319D01*
X114536326Y-94143717D01*
X114536330Y-94143709D01*
X114540782Y-94109886D01*
X114541402Y-94105732D01*
X114549762Y-94055575D01*
X114552331Y-94035071D01*
X114552391Y-94034360D01*
X114552491Y-94033180D01*
X114553057Y-94020253D01*
X114553999Y-94009500D01*
X114555250Y-94000000D01*
X114550724Y-93965631D01*
X114549725Y-93945564D01*
X114549761Y-93944418D01*
X114541405Y-93894285D01*
X114540779Y-93890083D01*
X114536331Y-93856296D01*
X114534560Y-93849687D01*
X114532022Y-93837986D01*
X114512421Y-93720380D01*
X114512421Y-93679616D01*
X114524681Y-93606053D01*
X114537076Y-93569047D01*
X114713025Y-93232121D01*
X114735254Y-93201847D01*
X116050285Y-91886819D01*
X116111608Y-91853334D01*
X116137966Y-91850500D01*
X148788153Y-91850500D01*
X148855192Y-91870185D01*
X148900947Y-91922989D01*
X148910891Y-91992147D01*
X148909770Y-91998691D01*
X148899500Y-92050321D01*
X148899500Y-93799678D01*
X148914032Y-93872735D01*
X148914033Y-93872739D01*
X148914034Y-93872740D01*
X148969399Y-93955601D01*
X149035848Y-94000000D01*
X149052260Y-94010966D01*
X149052264Y-94010967D01*
X149125321Y-94025499D01*
X149125324Y-94025500D01*
X149125326Y-94025500D01*
X150874676Y-94025500D01*
X150874677Y-94025499D01*
X150947740Y-94010966D01*
X151030601Y-93955601D01*
X151085966Y-93872740D01*
X151100500Y-93799674D01*
X151100500Y-92949661D01*
X151120185Y-92882622D01*
X151172989Y-92836867D01*
X151242147Y-92826923D01*
X151305703Y-92855948D01*
X151339521Y-92903335D01*
X151513327Y-93334872D01*
X151514170Y-93336939D01*
X151514169Y-93336939D01*
X151516026Y-93339724D01*
X151523844Y-93353223D01*
X151600327Y-93506821D01*
X151723237Y-93669581D01*
X151873958Y-93806980D01*
X151873960Y-93806982D01*
X151973141Y-93868392D01*
X152047363Y-93914348D01*
X152237544Y-93988024D01*
X152438024Y-94025500D01*
X152438026Y-94025500D01*
X152641974Y-94025500D01*
X152641976Y-94025500D01*
X152842456Y-93988024D01*
X153032637Y-93914348D01*
X153206041Y-93806981D01*
X153356764Y-93669579D01*
X153479673Y-93506821D01*
X153570582Y-93324250D01*
X153626397Y-93128083D01*
X153645215Y-92925000D01*
X153643207Y-92903335D01*
X153626397Y-92721917D01*
X153570582Y-92525750D01*
X153479673Y-92343179D01*
X153356764Y-92180421D01*
X153356762Y-92180418D01*
X153206041Y-92043019D01*
X153206039Y-92043017D01*
X153032640Y-91935653D01*
X153032634Y-91935651D01*
X152999950Y-91922989D01*
X152981685Y-91915913D01*
X152958609Y-91904063D01*
X152949786Y-91898292D01*
X151634771Y-91368653D01*
X151593416Y-91341313D01*
X151463784Y-91211681D01*
X151430299Y-91150358D01*
X151435283Y-91080666D01*
X151477155Y-91024733D01*
X151542619Y-91000316D01*
X151551465Y-91000000D01*
X154076000Y-91000000D01*
X154143039Y-91019685D01*
X154188794Y-91072489D01*
X154200000Y-91124000D01*
X154200000Y-112376000D01*
X154180315Y-112443039D01*
X154127511Y-112488794D01*
X154076000Y-112500000D01*
X108874000Y-112500000D01*
X108806961Y-112480315D01*
X108761206Y-112427511D01*
X108750000Y-112376000D01*
X108750000Y-108755002D01*
X117834751Y-108755002D01*
X117853685Y-108923056D01*
X117909545Y-109082694D01*
X117909547Y-109082697D01*
X117961171Y-109164855D01*
X117980172Y-109232091D01*
X117959805Y-109298926D01*
X117925069Y-109333929D01*
X117909399Y-109344398D01*
X117854033Y-109427260D01*
X117854032Y-109427264D01*
X117839500Y-109500321D01*
X117839500Y-110549678D01*
X117854032Y-110622735D01*
X117854033Y-110622739D01*
X117854034Y-110622740D01*
X117909399Y-110705601D01*
X117992044Y-110760822D01*
X117992260Y-110760966D01*
X117992264Y-110760967D01*
X118065321Y-110775499D01*
X118065324Y-110775500D01*
X118065326Y-110775500D01*
X119114676Y-110775500D01*
X119114677Y-110775499D01*
X119187740Y-110760966D01*
X119270601Y-110705601D01*
X119281348Y-110689515D01*
X119334957Y-110644711D01*
X119404282Y-110636002D01*
X119450423Y-110653413D01*
X119532526Y-110705002D01*
X119692051Y-110760822D01*
X119735000Y-110765660D01*
X119735000Y-110327970D01*
X119817213Y-110350000D01*
X119902787Y-110350000D01*
X119985000Y-110327970D01*
X119985000Y-110765660D01*
X120027948Y-110760822D01*
X120187471Y-110705003D01*
X120330575Y-110615084D01*
X120407319Y-110538341D01*
X120468642Y-110504856D01*
X120538334Y-110509840D01*
X120582681Y-110538341D01*
X120659424Y-110615084D01*
X120802528Y-110705003D01*
X120962051Y-110760822D01*
X121005000Y-110765660D01*
X121005000Y-110327970D01*
X121087213Y-110350000D01*
X121172787Y-110350000D01*
X121255000Y-110327970D01*
X121255000Y-110765660D01*
X121297948Y-110760822D01*
X121457471Y-110705003D01*
X121600572Y-110615086D01*
X121676964Y-110538694D01*
X121738287Y-110505209D01*
X121807979Y-110510193D01*
X121852327Y-110538694D01*
X121929109Y-110615476D01*
X121929115Y-110615481D01*
X122072302Y-110705452D01*
X122072305Y-110705454D01*
X122072309Y-110705455D01*
X122072310Y-110705456D01*
X122144913Y-110730860D01*
X122231943Y-110761314D01*
X122399997Y-110780249D01*
X122400000Y-110780249D01*
X122400003Y-110780249D01*
X122568056Y-110761314D01*
X122569462Y-110760822D01*
X122727690Y-110705456D01*
X122727692Y-110705454D01*
X122727694Y-110705454D01*
X122727697Y-110705452D01*
X122870884Y-110615481D01*
X122870884Y-110615480D01*
X122870890Y-110615477D01*
X122947675Y-110538691D01*
X123008994Y-110505209D01*
X123078686Y-110510193D01*
X123123034Y-110538694D01*
X123199424Y-110615084D01*
X123342528Y-110705003D01*
X123502051Y-110760822D01*
X123545000Y-110765660D01*
X123545000Y-110327970D01*
X123627213Y-110350000D01*
X123712787Y-110350000D01*
X123795000Y-110327970D01*
X123795000Y-110765660D01*
X123837948Y-110760822D01*
X123997471Y-110705003D01*
X123997476Y-110705000D01*
X148894785Y-110705000D01*
X148913602Y-110908082D01*
X148969417Y-111104247D01*
X148969422Y-111104260D01*
X149060327Y-111286821D01*
X149183237Y-111449581D01*
X149333958Y-111586980D01*
X149333960Y-111586982D01*
X149433141Y-111648392D01*
X149507363Y-111694348D01*
X149697544Y-111768024D01*
X149898024Y-111805500D01*
X149898026Y-111805500D01*
X150101974Y-111805500D01*
X150101976Y-111805500D01*
X150302456Y-111768024D01*
X150492637Y-111694348D01*
X150666041Y-111586981D01*
X150816764Y-111449579D01*
X150939673Y-111286821D01*
X151030582Y-111104250D01*
X151086397Y-110908083D01*
X151105215Y-110705000D01*
X151434785Y-110705000D01*
X151453602Y-110908082D01*
X151509417Y-111104247D01*
X151509422Y-111104260D01*
X151600327Y-111286821D01*
X151723237Y-111449581D01*
X151873958Y-111586980D01*
X151873960Y-111586982D01*
X151973141Y-111648392D01*
X152047363Y-111694348D01*
X152237544Y-111768024D01*
X152438024Y-111805500D01*
X152438026Y-111805500D01*
X152641974Y-111805500D01*
X152641976Y-111805500D01*
X152842456Y-111768024D01*
X153032637Y-111694348D01*
X153206041Y-111586981D01*
X153356764Y-111449579D01*
X153479673Y-111286821D01*
X153570582Y-111104250D01*
X153626397Y-110908083D01*
X153645215Y-110705000D01*
X153626397Y-110501917D01*
X153570582Y-110305750D01*
X153479673Y-110123179D01*
X153373221Y-109982213D01*
X153356762Y-109960418D01*
X153206041Y-109823019D01*
X153206039Y-109823017D01*
X153032642Y-109715655D01*
X153032635Y-109715651D01*
X152937546Y-109678814D01*
X152842456Y-109641976D01*
X152641976Y-109604500D01*
X152438024Y-109604500D01*
X152237544Y-109641976D01*
X152237541Y-109641976D01*
X152237541Y-109641977D01*
X152047364Y-109715651D01*
X152047357Y-109715655D01*
X151873960Y-109823017D01*
X151873958Y-109823019D01*
X151723237Y-109960418D01*
X151600327Y-110123178D01*
X151509422Y-110305739D01*
X151509417Y-110305752D01*
X151453602Y-110501917D01*
X151434785Y-110704999D01*
X151434785Y-110705000D01*
X151105215Y-110705000D01*
X151086397Y-110501917D01*
X151030582Y-110305750D01*
X150939673Y-110123179D01*
X150833221Y-109982213D01*
X150816762Y-109960418D01*
X150666041Y-109823019D01*
X150666039Y-109823017D01*
X150492642Y-109715655D01*
X150492635Y-109715651D01*
X150397546Y-109678814D01*
X150302456Y-109641976D01*
X150101976Y-109604500D01*
X149898024Y-109604500D01*
X149697544Y-109641976D01*
X149697541Y-109641976D01*
X149697541Y-109641977D01*
X149507364Y-109715651D01*
X149507357Y-109715655D01*
X149333960Y-109823017D01*
X149333958Y-109823019D01*
X149183237Y-109960418D01*
X149060327Y-110123178D01*
X148969422Y-110305739D01*
X148969417Y-110305752D01*
X148913602Y-110501917D01*
X148894785Y-110704999D01*
X148894785Y-110705000D01*
X123997476Y-110705000D01*
X124140575Y-110615084D01*
X124260084Y-110495575D01*
X124350003Y-110352471D01*
X124405823Y-110192945D01*
X124410662Y-110150000D01*
X123972970Y-110150000D01*
X123995000Y-110067787D01*
X123995000Y-109982213D01*
X123972970Y-109900000D01*
X124410663Y-109900000D01*
X124410662Y-109899999D01*
X124405823Y-109857054D01*
X124350003Y-109697528D01*
X124260084Y-109554424D01*
X124183694Y-109478034D01*
X124150209Y-109416711D01*
X124155193Y-109347019D01*
X124183690Y-109302676D01*
X124260477Y-109225890D01*
X124298828Y-109164855D01*
X124350452Y-109082697D01*
X124350454Y-109082694D01*
X124350454Y-109082692D01*
X124350456Y-109082690D01*
X124406313Y-108923059D01*
X124406313Y-108923058D01*
X124406314Y-108923056D01*
X124425249Y-108755002D01*
X124425249Y-108754997D01*
X124406314Y-108586943D01*
X124367107Y-108474898D01*
X124363262Y-108461556D01*
X124360239Y-108448315D01*
X124233433Y-108165000D01*
X148894785Y-108165000D01*
X148913602Y-108368082D01*
X148969417Y-108564247D01*
X148969422Y-108564260D01*
X149060327Y-108746821D01*
X149183237Y-108909581D01*
X149333958Y-109046980D01*
X149333960Y-109046982D01*
X149391642Y-109082697D01*
X149507363Y-109154348D01*
X149697544Y-109228024D01*
X149898024Y-109265500D01*
X149898026Y-109265500D01*
X150101974Y-109265500D01*
X150101976Y-109265500D01*
X150302456Y-109228024D01*
X150492637Y-109154348D01*
X150666041Y-109046981D01*
X150816764Y-108909579D01*
X150939673Y-108746821D01*
X151030582Y-108564250D01*
X151086397Y-108368083D01*
X151105215Y-108165000D01*
X151434785Y-108165000D01*
X151453602Y-108368082D01*
X151509417Y-108564247D01*
X151509422Y-108564260D01*
X151600327Y-108746821D01*
X151723237Y-108909581D01*
X151873958Y-109046980D01*
X151873960Y-109046982D01*
X151931642Y-109082697D01*
X152047363Y-109154348D01*
X152237544Y-109228024D01*
X152438024Y-109265500D01*
X152438026Y-109265500D01*
X152641974Y-109265500D01*
X152641976Y-109265500D01*
X152842456Y-109228024D01*
X153032637Y-109154348D01*
X153206041Y-109046981D01*
X153356764Y-108909579D01*
X153479673Y-108746821D01*
X153570582Y-108564250D01*
X153626397Y-108368083D01*
X153645215Y-108165000D01*
X153636833Y-108074547D01*
X153626397Y-107961917D01*
X153570582Y-107765750D01*
X153559608Y-107743712D01*
X153495914Y-107615796D01*
X153479673Y-107583179D01*
X153356764Y-107420421D01*
X153356762Y-107420418D01*
X153206041Y-107283019D01*
X153206039Y-107283017D01*
X153032642Y-107175655D01*
X153032635Y-107175651D01*
X152900631Y-107124513D01*
X152842456Y-107101976D01*
X152641976Y-107064500D01*
X152438024Y-107064500D01*
X152237544Y-107101976D01*
X152237541Y-107101976D01*
X152237541Y-107101977D01*
X152047364Y-107175651D01*
X152047357Y-107175655D01*
X151873960Y-107283017D01*
X151873958Y-107283019D01*
X151723237Y-107420418D01*
X151600327Y-107583178D01*
X151509422Y-107765739D01*
X151509417Y-107765752D01*
X151453602Y-107961917D01*
X151434785Y-108164999D01*
X151434785Y-108165000D01*
X151105215Y-108165000D01*
X151096833Y-108074547D01*
X151086397Y-107961917D01*
X151030582Y-107765750D01*
X151019608Y-107743712D01*
X150955914Y-107615796D01*
X150939673Y-107583179D01*
X150816764Y-107420421D01*
X150816762Y-107420418D01*
X150666041Y-107283019D01*
X150666039Y-107283017D01*
X150492642Y-107175655D01*
X150492635Y-107175651D01*
X150360631Y-107124513D01*
X150302456Y-107101976D01*
X150101976Y-107064500D01*
X149898024Y-107064500D01*
X149697544Y-107101976D01*
X149697541Y-107101976D01*
X149697541Y-107101977D01*
X149507364Y-107175651D01*
X149507357Y-107175655D01*
X149333960Y-107283017D01*
X149333958Y-107283019D01*
X149183237Y-107420418D01*
X149060327Y-107583178D01*
X148969422Y-107765739D01*
X148969417Y-107765752D01*
X148913602Y-107961917D01*
X148894785Y-108164999D01*
X148894785Y-108165000D01*
X124233433Y-108165000D01*
X124031319Y-107713430D01*
X124020500Y-107662773D01*
X124020500Y-106926544D01*
X124040185Y-106859505D01*
X124056819Y-106838863D01*
X124095682Y-106800000D01*
X127844750Y-106800000D01*
X127860211Y-106917439D01*
X127863670Y-106943708D01*
X127863671Y-106943712D01*
X127919137Y-107077622D01*
X127919138Y-107077623D01*
X127919139Y-107077625D01*
X128007379Y-107192621D01*
X128122375Y-107280861D01*
X128122376Y-107280861D01*
X128122377Y-107280862D01*
X128123290Y-107281240D01*
X128256291Y-107336330D01*
X128383280Y-107353048D01*
X128399999Y-107355250D01*
X128400000Y-107355250D01*
X128400001Y-107355250D01*
X128418921Y-107352758D01*
X128543709Y-107336330D01*
X128577290Y-107322419D01*
X128605745Y-107314445D01*
X128612939Y-107313331D01*
X129038278Y-107158022D01*
X129080809Y-107150500D01*
X130119191Y-107150500D01*
X130161722Y-107158022D01*
X130587060Y-107313330D01*
X130596025Y-107314825D01*
X130623079Y-107322573D01*
X130656291Y-107336330D01*
X130783280Y-107353048D01*
X130799999Y-107355250D01*
X130800000Y-107355250D01*
X130800001Y-107355250D01*
X130814977Y-107353278D01*
X130943709Y-107336330D01*
X131077625Y-107280861D01*
X131192621Y-107192621D01*
X131280861Y-107077625D01*
X131336330Y-106943709D01*
X131355250Y-106800000D01*
X131336330Y-106656291D01*
X131284233Y-106530515D01*
X131280862Y-106522377D01*
X131280861Y-106522376D01*
X131280861Y-106522375D01*
X131192621Y-106407379D01*
X131077625Y-106319139D01*
X131077624Y-106319138D01*
X131077622Y-106319137D01*
X130943712Y-106263671D01*
X130943710Y-106263670D01*
X130943709Y-106263670D01*
X130871854Y-106254210D01*
X130800001Y-106244750D01*
X130799999Y-106244750D01*
X130656289Y-106263670D01*
X130622708Y-106277579D01*
X130594260Y-106285551D01*
X130587072Y-106286665D01*
X130587065Y-106286667D01*
X130161719Y-106441978D01*
X130119188Y-106449500D01*
X129080812Y-106449500D01*
X129038281Y-106441978D01*
X128612941Y-106286669D01*
X128612932Y-106286667D01*
X128603974Y-106285174D01*
X128576914Y-106277423D01*
X128543709Y-106263670D01*
X128471854Y-106254210D01*
X128400001Y-106244750D01*
X128399999Y-106244750D01*
X128256291Y-106263670D01*
X128256287Y-106263671D01*
X128122377Y-106319137D01*
X128007379Y-106407379D01*
X127919137Y-106522377D01*
X127863671Y-106656287D01*
X127863670Y-106656291D01*
X127853392Y-106734362D01*
X127844750Y-106800000D01*
X124095682Y-106800000D01*
X127851921Y-103043761D01*
X129779108Y-103043761D01*
X129798028Y-103187469D01*
X129798029Y-103187473D01*
X129853495Y-103321383D01*
X129853496Y-103321385D01*
X129853497Y-103321386D01*
X129941737Y-103436382D01*
X130056733Y-103524622D01*
X130132014Y-103555804D01*
X130142376Y-103560670D01*
X130159167Y-103569524D01*
X130174131Y-103573971D01*
X130186258Y-103578272D01*
X130190649Y-103580091D01*
X130194233Y-103581051D01*
X130207372Y-103583851D01*
X130576791Y-103693647D01*
X130629145Y-103724827D01*
X134421195Y-107516877D01*
X134437906Y-107539553D01*
X134438533Y-107539140D01*
X134441881Y-107544220D01*
X134781231Y-107962957D01*
X134789585Y-107972750D01*
X134790379Y-107973635D01*
X134798988Y-107982751D01*
X134807204Y-107992394D01*
X134807375Y-107992617D01*
X134807377Y-107992618D01*
X134807379Y-107992621D01*
X134922375Y-108080861D01*
X134922376Y-108080861D01*
X134922377Y-108080862D01*
X134926484Y-108082563D01*
X135056291Y-108136330D01*
X135183280Y-108153048D01*
X135199999Y-108155250D01*
X135200000Y-108155250D01*
X135200001Y-108155250D01*
X135214977Y-108153278D01*
X135343709Y-108136330D01*
X135477625Y-108080861D01*
X135592621Y-107992621D01*
X135680861Y-107877625D01*
X135736330Y-107743709D01*
X135755250Y-107600000D01*
X135736330Y-107456291D01*
X135680861Y-107322375D01*
X135644881Y-107275485D01*
X135619687Y-107210318D01*
X135633725Y-107141873D01*
X135644882Y-107124513D01*
X135680861Y-107077625D01*
X135736330Y-106943709D01*
X135755250Y-106800000D01*
X135736330Y-106656291D01*
X135684233Y-106530515D01*
X135680862Y-106522377D01*
X135680861Y-106522376D01*
X135680861Y-106522375D01*
X135592621Y-106407379D01*
X135477625Y-106319139D01*
X135477620Y-106319137D01*
X135444048Y-106305231D01*
X135418283Y-106290746D01*
X135412416Y-106286453D01*
X135412409Y-106286449D01*
X135001826Y-106095507D01*
X134966434Y-106070752D01*
X134395681Y-105499999D01*
X148906869Y-105499999D01*
X148906870Y-105500000D01*
X149515856Y-105500000D01*
X149500000Y-105559174D01*
X149500000Y-105690826D01*
X149515856Y-105750000D01*
X148906870Y-105750000D01*
X148914097Y-105827989D01*
X148914097Y-105827992D01*
X148969883Y-106024063D01*
X148969886Y-106024069D01*
X149060754Y-106206556D01*
X149183608Y-106369242D01*
X149334260Y-106506578D01*
X149507584Y-106613897D01*
X149697678Y-106687539D01*
X149875000Y-106720686D01*
X149875000Y-106109144D01*
X149934174Y-106125000D01*
X150065826Y-106125000D01*
X150125000Y-106109144D01*
X150125000Y-106720686D01*
X150302321Y-106687539D01*
X150492415Y-106613897D01*
X150665739Y-106506578D01*
X150816391Y-106369242D01*
X150939245Y-106206556D01*
X151030113Y-106024069D01*
X151030116Y-106024063D01*
X151085902Y-105827992D01*
X151085902Y-105827989D01*
X151093130Y-105750000D01*
X150484144Y-105750000D01*
X150500000Y-105690826D01*
X150500000Y-105559174D01*
X150484144Y-105500000D01*
X151093130Y-105500000D01*
X151093130Y-105499999D01*
X151446869Y-105499999D01*
X151446870Y-105500000D01*
X152055856Y-105500000D01*
X152040000Y-105559174D01*
X152040000Y-105690826D01*
X152055856Y-105750000D01*
X151446870Y-105750000D01*
X151454097Y-105827989D01*
X151454097Y-105827992D01*
X151509883Y-106024063D01*
X151509886Y-106024069D01*
X151600754Y-106206556D01*
X151723608Y-106369242D01*
X151874260Y-106506578D01*
X152047584Y-106613897D01*
X152237678Y-106687539D01*
X152415000Y-106720686D01*
X152415000Y-106109144D01*
X152474174Y-106125000D01*
X152605826Y-106125000D01*
X152665000Y-106109144D01*
X152665000Y-106720686D01*
X152842321Y-106687539D01*
X153032415Y-106613897D01*
X153205739Y-106506578D01*
X153356391Y-106369242D01*
X153479245Y-106206556D01*
X153570113Y-106024069D01*
X153570116Y-106024063D01*
X153625902Y-105827992D01*
X153625902Y-105827989D01*
X153633130Y-105750000D01*
X153024144Y-105750000D01*
X153040000Y-105690826D01*
X153040000Y-105559174D01*
X153024144Y-105500000D01*
X153633130Y-105500000D01*
X153633130Y-105499999D01*
X153625902Y-105422010D01*
X153625902Y-105422007D01*
X153570116Y-105225936D01*
X153570113Y-105225930D01*
X153479245Y-105043443D01*
X153356391Y-104880757D01*
X153205739Y-104743421D01*
X153032415Y-104636102D01*
X152842321Y-104562460D01*
X152665000Y-104529312D01*
X152665000Y-105140855D01*
X152605826Y-105125000D01*
X152474174Y-105125000D01*
X152415000Y-105140855D01*
X152415000Y-104529312D01*
X152237678Y-104562460D01*
X152047584Y-104636102D01*
X151874260Y-104743421D01*
X151723608Y-104880757D01*
X151600754Y-105043443D01*
X151509886Y-105225930D01*
X151509883Y-105225936D01*
X151454097Y-105422007D01*
X151454097Y-105422010D01*
X151446869Y-105499999D01*
X151093130Y-105499999D01*
X151085902Y-105422010D01*
X151085902Y-105422007D01*
X151030116Y-105225936D01*
X151030113Y-105225930D01*
X150939245Y-105043443D01*
X150816391Y-104880757D01*
X150665739Y-104743421D01*
X150492415Y-104636102D01*
X150302321Y-104562460D01*
X150125000Y-104529312D01*
X150125000Y-105140855D01*
X150065826Y-105125000D01*
X149934174Y-105125000D01*
X149875000Y-105140855D01*
X149875000Y-104529312D01*
X149697678Y-104562460D01*
X149507584Y-104636102D01*
X149334260Y-104743421D01*
X149183608Y-104880757D01*
X149060754Y-105043443D01*
X148969886Y-105225930D01*
X148969883Y-105225936D01*
X148914097Y-105422007D01*
X148914097Y-105422010D01*
X148906869Y-105499999D01*
X134395681Y-105499999D01*
X131729246Y-102833564D01*
X131704491Y-102798171D01*
X131513551Y-102387591D01*
X131513550Y-102387589D01*
X131508268Y-102380194D01*
X131494614Y-102355581D01*
X131480861Y-102322375D01*
X131392621Y-102207379D01*
X131277625Y-102119139D01*
X131277624Y-102119138D01*
X131277622Y-102119137D01*
X131143712Y-102063671D01*
X131143710Y-102063670D01*
X131143709Y-102063670D01*
X131071854Y-102054210D01*
X131000001Y-102044750D01*
X130999999Y-102044750D01*
X130856291Y-102063670D01*
X130856287Y-102063671D01*
X130722377Y-102119137D01*
X130607379Y-102207379D01*
X130519138Y-102322376D01*
X130480738Y-102415083D01*
X130436897Y-102469486D01*
X130370603Y-102491551D01*
X130349992Y-102490569D01*
X130334359Y-102488511D01*
X130334357Y-102488511D01*
X130190649Y-102507431D01*
X130190645Y-102507432D01*
X130056735Y-102562898D01*
X129941737Y-102651140D01*
X129853495Y-102766138D01*
X129798029Y-102900048D01*
X129798028Y-102900052D01*
X129779108Y-103043760D01*
X129779108Y-103043761D01*
X127851921Y-103043761D01*
X130258863Y-100636819D01*
X130320186Y-100603334D01*
X130346544Y-100600500D01*
X132114896Y-100600500D01*
X132181935Y-100620185D01*
X132227690Y-100672989D01*
X132237634Y-100742147D01*
X132211187Y-100800057D01*
X132212327Y-100800932D01*
X132207381Y-100807377D01*
X132207379Y-100807379D01*
X132159128Y-100870261D01*
X132119137Y-100922377D01*
X132063671Y-101056287D01*
X132063670Y-101056291D01*
X132044750Y-101199999D01*
X132044750Y-101200000D01*
X132063670Y-101343708D01*
X132063671Y-101343712D01*
X132119137Y-101477622D01*
X132119138Y-101477624D01*
X132119139Y-101477625D01*
X132207379Y-101592621D01*
X132322375Y-101680861D01*
X132456291Y-101736330D01*
X132583280Y-101753048D01*
X132599999Y-101755250D01*
X132600000Y-101755250D01*
X132600001Y-101755250D01*
X132618921Y-101752758D01*
X132743709Y-101736330D01*
X132777290Y-101722419D01*
X132805745Y-101714445D01*
X132812939Y-101713331D01*
X133238278Y-101558022D01*
X133280809Y-101550500D01*
X140003456Y-101550500D01*
X140070495Y-101570185D01*
X140091137Y-101586819D01*
X142950764Y-104446446D01*
X142978516Y-104488836D01*
X143063330Y-104704999D01*
X143119715Y-104848708D01*
X143140745Y-104902305D01*
X143142201Y-104905936D01*
X143142204Y-104905941D01*
X143149322Y-104916667D01*
X143160563Y-104937779D01*
X143179137Y-104982621D01*
X143179139Y-104982625D01*
X143267379Y-105097621D01*
X143382375Y-105185861D01*
X143516291Y-105241330D01*
X143643280Y-105258048D01*
X143659999Y-105260250D01*
X143660000Y-105260250D01*
X143660001Y-105260250D01*
X143674977Y-105258278D01*
X143803709Y-105241330D01*
X143937625Y-105185861D01*
X144052621Y-105097621D01*
X144140861Y-104982625D01*
X144196330Y-104848709D01*
X144215250Y-104705000D01*
X144196330Y-104561291D01*
X144140861Y-104427375D01*
X144052621Y-104312379D01*
X143937625Y-104224139D01*
X143915683Y-104215050D01*
X143891270Y-104200421D01*
X143890957Y-104200890D01*
X143885890Y-104197506D01*
X143885886Y-104197503D01*
X143655385Y-104074344D01*
X143488320Y-103985079D01*
X143459075Y-103963393D01*
X142580682Y-103085000D01*
X148894785Y-103085000D01*
X148913602Y-103288082D01*
X148969417Y-103484247D01*
X148969422Y-103484260D01*
X149060327Y-103666821D01*
X149183237Y-103829581D01*
X149333958Y-103966980D01*
X149333960Y-103966982D01*
X149363188Y-103985079D01*
X149507363Y-104074348D01*
X149697544Y-104148024D01*
X149898024Y-104185500D01*
X149898026Y-104185500D01*
X150101974Y-104185500D01*
X150101976Y-104185500D01*
X150302456Y-104148024D01*
X150492637Y-104074348D01*
X150666041Y-103966981D01*
X150816764Y-103829579D01*
X150939673Y-103666821D01*
X151030582Y-103484250D01*
X151086397Y-103288083D01*
X151105215Y-103085000D01*
X151434785Y-103085000D01*
X151453602Y-103288082D01*
X151509417Y-103484247D01*
X151509422Y-103484260D01*
X151600327Y-103666821D01*
X151723237Y-103829581D01*
X151873958Y-103966980D01*
X151873960Y-103966982D01*
X151903188Y-103985079D01*
X152047363Y-104074348D01*
X152237544Y-104148024D01*
X152438024Y-104185500D01*
X152438026Y-104185500D01*
X152641974Y-104185500D01*
X152641976Y-104185500D01*
X152842456Y-104148024D01*
X153032637Y-104074348D01*
X153206041Y-103966981D01*
X153356764Y-103829579D01*
X153479673Y-103666821D01*
X153570582Y-103484250D01*
X153626397Y-103288083D01*
X153645215Y-103085000D01*
X153626397Y-102881917D01*
X153570582Y-102685750D01*
X153553348Y-102651140D01*
X153496180Y-102536330D01*
X153479673Y-102503179D01*
X153386803Y-102380199D01*
X153356762Y-102340418D01*
X153206041Y-102203019D01*
X153206039Y-102203017D01*
X153032642Y-102095655D01*
X153032635Y-102095651D01*
X152901243Y-102044750D01*
X152842456Y-102021976D01*
X152641976Y-101984500D01*
X152438024Y-101984500D01*
X152237544Y-102021976D01*
X152237541Y-102021976D01*
X152237541Y-102021977D01*
X152047364Y-102095651D01*
X152047357Y-102095655D01*
X151873960Y-102203017D01*
X151873958Y-102203019D01*
X151723237Y-102340418D01*
X151600327Y-102503178D01*
X151509422Y-102685739D01*
X151509417Y-102685752D01*
X151453602Y-102881917D01*
X151434785Y-103084999D01*
X151434785Y-103085000D01*
X151105215Y-103085000D01*
X151086397Y-102881917D01*
X151030582Y-102685750D01*
X151013348Y-102651140D01*
X150956180Y-102536330D01*
X150939673Y-102503179D01*
X150846803Y-102380199D01*
X150816762Y-102340418D01*
X150666041Y-102203019D01*
X150666039Y-102203017D01*
X150492642Y-102095655D01*
X150492635Y-102095651D01*
X150361243Y-102044750D01*
X150302456Y-102021976D01*
X150101976Y-101984500D01*
X149898024Y-101984500D01*
X149697544Y-102021976D01*
X149697541Y-102021976D01*
X149697541Y-102021977D01*
X149507364Y-102095651D01*
X149507357Y-102095655D01*
X149333960Y-102203017D01*
X149333958Y-102203019D01*
X149183237Y-102340418D01*
X149060327Y-102503178D01*
X148969422Y-102685739D01*
X148969417Y-102685752D01*
X148913602Y-102881917D01*
X148894785Y-103084999D01*
X148894785Y-103085000D01*
X142580682Y-103085000D01*
X140415213Y-100919531D01*
X140415208Y-100919527D01*
X140335289Y-100873386D01*
X140331020Y-100872242D01*
X140323625Y-100870261D01*
X140323624Y-100870260D01*
X140266904Y-100855062D01*
X140246144Y-100849500D01*
X140246143Y-100849500D01*
X133485104Y-100849500D01*
X133418065Y-100829815D01*
X133372310Y-100777011D01*
X133362366Y-100707853D01*
X133388812Y-100649942D01*
X133387673Y-100649068D01*
X133392618Y-100642622D01*
X133392621Y-100642621D01*
X133480861Y-100527625D01*
X133536330Y-100393709D01*
X133555250Y-100250000D01*
X133536330Y-100106291D01*
X133480861Y-99972375D01*
X133392621Y-99857379D01*
X133277625Y-99769139D01*
X133277624Y-99769138D01*
X133277622Y-99769137D01*
X133143712Y-99713671D01*
X133143710Y-99713670D01*
X133143709Y-99713670D01*
X133071854Y-99704210D01*
X133000001Y-99694750D01*
X132999999Y-99694750D01*
X132856289Y-99713670D01*
X132822708Y-99727579D01*
X132794260Y-99735551D01*
X132787072Y-99736665D01*
X132787065Y-99736667D01*
X132361719Y-99891978D01*
X132319188Y-99899500D01*
X130103856Y-99899500D01*
X130020073Y-99921948D01*
X130020074Y-99921949D01*
X130014712Y-99923385D01*
X130014708Y-99923387D01*
X129934791Y-99969527D01*
X129934786Y-99969531D01*
X123389531Y-106514786D01*
X123389527Y-106514791D01*
X123362470Y-106561657D01*
X123362470Y-106561658D01*
X123343386Y-106594710D01*
X123319500Y-106683856D01*
X123319500Y-107662774D01*
X123308680Y-107713432D01*
X123107396Y-108163145D01*
X123062042Y-108216293D01*
X122995153Y-108236483D01*
X122927967Y-108217306D01*
X122906535Y-108200168D01*
X122870890Y-108164523D01*
X122870884Y-108164518D01*
X122727697Y-108074547D01*
X122727694Y-108074545D01*
X122568056Y-108018685D01*
X122400003Y-107999751D01*
X122399997Y-107999751D01*
X122231943Y-108018685D01*
X122072305Y-108074545D01*
X122072302Y-108074547D01*
X121929115Y-108164518D01*
X121929109Y-108164523D01*
X121852681Y-108240952D01*
X121791358Y-108274437D01*
X121721666Y-108269453D01*
X121677319Y-108240952D01*
X121600890Y-108164523D01*
X121600884Y-108164518D01*
X121457697Y-108074547D01*
X121457694Y-108074545D01*
X121298056Y-108018685D01*
X121130003Y-107999751D01*
X121129997Y-107999751D01*
X120961943Y-108018685D01*
X120802305Y-108074545D01*
X120802302Y-108074547D01*
X120659115Y-108164518D01*
X120659109Y-108164523D01*
X120582681Y-108240952D01*
X120521358Y-108274437D01*
X120451666Y-108269453D01*
X120407319Y-108240952D01*
X120330890Y-108164523D01*
X120330884Y-108164518D01*
X120187697Y-108074547D01*
X120187694Y-108074545D01*
X120028056Y-108018685D01*
X119860003Y-107999751D01*
X119859997Y-107999751D01*
X119691943Y-108018685D01*
X119532305Y-108074545D01*
X119532302Y-108074547D01*
X119389115Y-108164518D01*
X119389109Y-108164523D01*
X119312681Y-108240952D01*
X119251358Y-108274437D01*
X119181666Y-108269453D01*
X119137319Y-108240952D01*
X119060890Y-108164523D01*
X119060884Y-108164518D01*
X118917697Y-108074547D01*
X118917694Y-108074545D01*
X118758056Y-108018685D01*
X118590003Y-107999751D01*
X118589997Y-107999751D01*
X118421943Y-108018685D01*
X118262305Y-108074545D01*
X118262302Y-108074547D01*
X118119115Y-108164518D01*
X118119109Y-108164523D01*
X117999523Y-108284109D01*
X117999518Y-108284115D01*
X117909547Y-108427302D01*
X117909545Y-108427305D01*
X117853685Y-108586943D01*
X117834751Y-108754997D01*
X117834751Y-108755002D01*
X108750000Y-108755002D01*
X108750000Y-107625000D01*
X109860170Y-107625000D01*
X109878820Y-107718759D01*
X109878822Y-107718767D01*
X109935357Y-107855254D01*
X109935362Y-107855264D01*
X110017436Y-107978096D01*
X110017439Y-107978100D01*
X110121899Y-108082560D01*
X110121903Y-108082563D01*
X110244735Y-108164637D01*
X110244745Y-108164642D01*
X110381232Y-108221177D01*
X110381240Y-108221179D01*
X110526126Y-108249999D01*
X110526129Y-108250000D01*
X110875000Y-108250000D01*
X110875000Y-107800000D01*
X111125000Y-107800000D01*
X111125000Y-108250000D01*
X111473871Y-108250000D01*
X111473873Y-108249999D01*
X111618759Y-108221179D01*
X111618767Y-108221177D01*
X111755254Y-108164642D01*
X111755264Y-108164637D01*
X111878096Y-108082563D01*
X111878100Y-108082560D01*
X111982560Y-107978100D01*
X111982563Y-107978096D01*
X112064637Y-107855264D01*
X112064642Y-107855254D01*
X112121177Y-107718767D01*
X112121179Y-107718759D01*
X112139829Y-107625000D01*
X113910170Y-107625000D01*
X113928820Y-107718759D01*
X113928822Y-107718767D01*
X113985357Y-107855254D01*
X113985362Y-107855264D01*
X114067436Y-107978096D01*
X114067439Y-107978100D01*
X114171899Y-108082560D01*
X114171903Y-108082563D01*
X114294735Y-108164637D01*
X114294745Y-108164642D01*
X114431232Y-108221177D01*
X114431240Y-108221179D01*
X114576126Y-108249999D01*
X114576129Y-108250000D01*
X115075000Y-108250000D01*
X115075000Y-107800000D01*
X115325000Y-107800000D01*
X115325000Y-108250000D01*
X115823871Y-108250000D01*
X115823873Y-108249999D01*
X115968759Y-108221179D01*
X115968767Y-108221177D01*
X116105254Y-108164642D01*
X116105264Y-108164637D01*
X116228096Y-108082563D01*
X116228100Y-108082560D01*
X116332560Y-107978100D01*
X116332563Y-107978096D01*
X116414637Y-107855264D01*
X116414642Y-107855254D01*
X116471177Y-107718767D01*
X116471179Y-107718759D01*
X116489829Y-107625000D01*
X116024242Y-107625000D01*
X116029556Y-107615796D01*
X116050000Y-107539496D01*
X116050000Y-107460504D01*
X116029556Y-107384204D01*
X116024242Y-107375000D01*
X116489829Y-107375000D01*
X116489829Y-107374999D01*
X116471179Y-107281240D01*
X116471177Y-107281232D01*
X116414642Y-107144745D01*
X116414637Y-107144735D01*
X116332563Y-107021903D01*
X116332560Y-107021899D01*
X116228100Y-106917439D01*
X116228096Y-106917436D01*
X116105264Y-106835362D01*
X116105254Y-106835357D01*
X115968767Y-106778822D01*
X115968759Y-106778820D01*
X115823872Y-106750000D01*
X115325000Y-106750000D01*
X115325000Y-107200000D01*
X115075000Y-107200000D01*
X115075000Y-106750000D01*
X115059362Y-106734362D01*
X115045579Y-106730315D01*
X114999824Y-106677511D01*
X114989880Y-106608353D01*
X115018905Y-106544797D01*
X115027785Y-106536429D01*
X115027618Y-106536262D01*
X115057302Y-106506578D01*
X115140515Y-106423365D01*
X115216281Y-106292135D01*
X115255500Y-106145766D01*
X115255500Y-105994234D01*
X115216281Y-105847865D01*
X115140515Y-105716635D01*
X115033365Y-105609485D01*
X114946224Y-105559174D01*
X114902136Y-105533719D01*
X114828950Y-105514109D01*
X114755766Y-105494500D01*
X114604234Y-105494500D01*
X114457863Y-105533719D01*
X114326635Y-105609485D01*
X114326632Y-105609487D01*
X114219487Y-105716632D01*
X114219485Y-105716635D01*
X114143719Y-105847863D01*
X114104500Y-105994234D01*
X114104500Y-106145765D01*
X114143719Y-106292136D01*
X114181602Y-106357750D01*
X114219485Y-106423365D01*
X114326635Y-106530515D01*
X114402989Y-106574598D01*
X114451205Y-106625165D01*
X114464428Y-106693772D01*
X114438460Y-106758637D01*
X114388443Y-106796546D01*
X114294741Y-106835359D01*
X114294735Y-106835362D01*
X114171903Y-106917436D01*
X114171899Y-106917439D01*
X114067439Y-107021899D01*
X114067436Y-107021903D01*
X113985362Y-107144735D01*
X113985357Y-107144745D01*
X113928822Y-107281232D01*
X113928820Y-107281240D01*
X113910170Y-107374999D01*
X113910171Y-107375000D01*
X114375758Y-107375000D01*
X114370444Y-107384204D01*
X114350000Y-107460504D01*
X114350000Y-107539496D01*
X114370444Y-107615796D01*
X114375758Y-107625000D01*
X113910170Y-107625000D01*
X112139829Y-107625000D01*
X111674242Y-107625000D01*
X111679556Y-107615796D01*
X111700000Y-107539496D01*
X111700000Y-107460504D01*
X111679556Y-107384204D01*
X111674242Y-107375000D01*
X112139829Y-107375000D01*
X112139829Y-107374999D01*
X112121179Y-107281240D01*
X112121177Y-107281232D01*
X112064642Y-107144745D01*
X112064637Y-107144735D01*
X111982563Y-107021903D01*
X111982560Y-107021899D01*
X111878100Y-106917439D01*
X111878096Y-106917436D01*
X111755264Y-106835362D01*
X111755254Y-106835357D01*
X111618767Y-106778822D01*
X111618759Y-106778820D01*
X111473872Y-106750000D01*
X111125000Y-106750000D01*
X111125000Y-107200000D01*
X110875000Y-107200000D01*
X110875000Y-106750000D01*
X110526128Y-106750000D01*
X110381240Y-106778820D01*
X110381232Y-106778822D01*
X110244745Y-106835357D01*
X110244735Y-106835362D01*
X110121903Y-106917436D01*
X110121899Y-106917439D01*
X110017439Y-107021899D01*
X110017436Y-107021903D01*
X109935362Y-107144735D01*
X109935357Y-107144745D01*
X109878822Y-107281232D01*
X109878820Y-107281240D01*
X109860170Y-107374999D01*
X109860171Y-107375000D01*
X110325758Y-107375000D01*
X110320444Y-107384204D01*
X110300000Y-107460504D01*
X110300000Y-107539496D01*
X110320444Y-107615796D01*
X110325758Y-107625000D01*
X109860170Y-107625000D01*
X108750000Y-107625000D01*
X108750000Y-102658809D01*
X116684470Y-102658809D01*
X116703390Y-102802517D01*
X116703391Y-102802521D01*
X116758857Y-102936431D01*
X116758858Y-102936433D01*
X116758859Y-102936434D01*
X116847099Y-103051430D01*
X116962095Y-103139670D01*
X117096011Y-103195139D01*
X117223000Y-103211857D01*
X117239719Y-103214059D01*
X117239720Y-103214059D01*
X117239721Y-103214059D01*
X117254697Y-103212087D01*
X117383429Y-103195139D01*
X117517345Y-103139670D01*
X117632341Y-103051430D01*
X117720581Y-102936434D01*
X117776050Y-102802518D01*
X117794970Y-102658809D01*
X117776050Y-102515100D01*
X117765889Y-102490569D01*
X117763700Y-102485284D01*
X117755410Y-102454670D01*
X117754798Y-102450207D01*
X117754797Y-102450204D01*
X117751606Y-102440967D01*
X117695186Y-102277622D01*
X117607295Y-102023164D01*
X117600500Y-101982681D01*
X117600500Y-101430811D01*
X117608022Y-101388280D01*
X117612557Y-101375862D01*
X117763331Y-100962939D01*
X117764824Y-100953980D01*
X117772573Y-100926919D01*
X117786330Y-100893709D01*
X117805250Y-100750000D01*
X117804997Y-100748082D01*
X117793147Y-100658073D01*
X117786330Y-100606291D01*
X117730861Y-100472375D01*
X117642621Y-100357379D01*
X117527625Y-100269139D01*
X117527624Y-100269138D01*
X117527622Y-100269137D01*
X117393712Y-100213671D01*
X117393710Y-100213670D01*
X117393709Y-100213670D01*
X117321854Y-100204210D01*
X117250001Y-100194750D01*
X117249999Y-100194750D01*
X117106291Y-100213670D01*
X117106287Y-100213671D01*
X116972377Y-100269137D01*
X116857379Y-100357379D01*
X116769137Y-100472377D01*
X116713671Y-100606287D01*
X116713670Y-100606291D01*
X116695003Y-100748082D01*
X116694750Y-100750000D01*
X116713670Y-100893709D01*
X116727424Y-100926915D01*
X116727578Y-100927286D01*
X116735552Y-100955740D01*
X116736667Y-100962932D01*
X116736667Y-100962933D01*
X116736667Y-100962935D01*
X116736668Y-100962936D01*
X116887443Y-101375862D01*
X116891978Y-101388280D01*
X116899500Y-101430811D01*
X116899500Y-101976928D01*
X116891105Y-102021778D01*
X116728479Y-102440956D01*
X116728476Y-102440967D01*
X116726436Y-102452169D01*
X116719006Y-102477395D01*
X116703390Y-102515096D01*
X116684470Y-102658808D01*
X116684470Y-102658809D01*
X108750000Y-102658809D01*
X108750000Y-102000000D01*
X111944750Y-102000000D01*
X111957343Y-102095655D01*
X111963670Y-102143708D01*
X111963671Y-102143712D01*
X112019137Y-102277622D01*
X112019138Y-102277624D01*
X112019139Y-102277625D01*
X112107379Y-102392621D01*
X112222375Y-102480861D01*
X112222376Y-102480861D01*
X112222377Y-102480862D01*
X112248183Y-102491551D01*
X112356291Y-102536330D01*
X112483280Y-102553048D01*
X112499999Y-102555250D01*
X112500000Y-102555250D01*
X112500001Y-102555250D01*
X112518921Y-102552758D01*
X112643709Y-102536330D01*
X112677290Y-102522419D01*
X112705745Y-102514445D01*
X112712939Y-102513331D01*
X113138278Y-102358022D01*
X113180809Y-102350500D01*
X113569191Y-102350500D01*
X113611722Y-102358022D01*
X114037060Y-102513330D01*
X114046025Y-102514825D01*
X114073079Y-102522573D01*
X114106291Y-102536330D01*
X114233280Y-102553048D01*
X114249999Y-102555250D01*
X114250000Y-102555250D01*
X114250001Y-102555250D01*
X114264977Y-102553278D01*
X114393709Y-102536330D01*
X114527625Y-102480861D01*
X114642621Y-102392621D01*
X114730861Y-102277625D01*
X114786330Y-102143709D01*
X114805250Y-102000000D01*
X114786330Y-101856291D01*
X114736641Y-101736329D01*
X114730862Y-101722377D01*
X114730861Y-101722376D01*
X114730861Y-101722375D01*
X114642621Y-101607379D01*
X114527625Y-101519139D01*
X114527624Y-101519138D01*
X114527622Y-101519137D01*
X114393712Y-101463671D01*
X114393710Y-101463670D01*
X114393709Y-101463670D01*
X114291776Y-101450250D01*
X114250001Y-101444750D01*
X114249999Y-101444750D01*
X114106289Y-101463670D01*
X114072708Y-101477579D01*
X114044260Y-101485551D01*
X114037072Y-101486665D01*
X114037065Y-101486667D01*
X113611719Y-101641978D01*
X113569188Y-101649500D01*
X113180812Y-101649500D01*
X113138281Y-101641978D01*
X112712941Y-101486669D01*
X112712932Y-101486667D01*
X112703974Y-101485174D01*
X112676914Y-101477423D01*
X112643709Y-101463670D01*
X112541776Y-101450250D01*
X112500001Y-101444750D01*
X112499999Y-101444750D01*
X112356291Y-101463670D01*
X112356287Y-101463671D01*
X112222377Y-101519137D01*
X112107379Y-101607379D01*
X112019137Y-101722377D01*
X111963671Y-101856287D01*
X111963670Y-101856291D01*
X111947788Y-101976928D01*
X111944750Y-102000000D01*
X108750000Y-102000000D01*
X108750000Y-98985000D01*
X109860170Y-98985000D01*
X109878820Y-99078759D01*
X109878822Y-99078767D01*
X109935357Y-99215254D01*
X109935362Y-99215264D01*
X110017436Y-99338096D01*
X110017439Y-99338100D01*
X110121899Y-99442560D01*
X110121903Y-99442563D01*
X110244735Y-99524637D01*
X110244745Y-99524642D01*
X110381232Y-99581177D01*
X110381240Y-99581179D01*
X110526126Y-99609999D01*
X110526129Y-99610000D01*
X110875000Y-99610000D01*
X110875000Y-99160000D01*
X111125000Y-99160000D01*
X111125000Y-99610000D01*
X111473871Y-99610000D01*
X111473873Y-99609999D01*
X111618759Y-99581179D01*
X111618767Y-99581177D01*
X111755254Y-99524642D01*
X111755264Y-99524637D01*
X111878096Y-99442563D01*
X111878100Y-99442560D01*
X111982560Y-99338100D01*
X111982563Y-99338096D01*
X112064637Y-99215264D01*
X112064642Y-99215254D01*
X112121177Y-99078767D01*
X112121179Y-99078759D01*
X112139829Y-98985000D01*
X113910170Y-98985000D01*
X113928820Y-99078759D01*
X113928822Y-99078767D01*
X113985357Y-99215254D01*
X113985362Y-99215264D01*
X114067436Y-99338096D01*
X114067439Y-99338100D01*
X114171899Y-99442560D01*
X114171903Y-99442563D01*
X114294735Y-99524637D01*
X114294744Y-99524642D01*
X114388442Y-99563453D01*
X114442845Y-99607294D01*
X114464910Y-99673588D01*
X114447631Y-99741287D01*
X114402990Y-99785401D01*
X114326635Y-99829485D01*
X114326632Y-99829487D01*
X114219487Y-99936632D01*
X114219485Y-99936635D01*
X114143719Y-100067863D01*
X114133424Y-100106287D01*
X114104500Y-100214234D01*
X114104500Y-100365766D01*
X114108761Y-100381668D01*
X114143719Y-100512136D01*
X114181602Y-100577750D01*
X114219485Y-100643365D01*
X114326635Y-100750515D01*
X114457865Y-100826281D01*
X114604234Y-100865500D01*
X114604236Y-100865500D01*
X114755764Y-100865500D01*
X114755766Y-100865500D01*
X114902135Y-100826281D01*
X115033365Y-100750515D01*
X115140515Y-100643365D01*
X115216281Y-100512135D01*
X115255500Y-100365766D01*
X115255500Y-100214234D01*
X115216281Y-100067865D01*
X115140515Y-99936635D01*
X115033365Y-99829485D01*
X115027618Y-99823738D01*
X115029471Y-99821884D01*
X114995931Y-99775954D01*
X114991773Y-99706208D01*
X115025982Y-99645286D01*
X115055245Y-99629754D01*
X115075000Y-99610000D01*
X115075000Y-99160000D01*
X115325000Y-99160000D01*
X115325000Y-99610000D01*
X115823871Y-99610000D01*
X115823873Y-99609999D01*
X115968759Y-99581179D01*
X115968767Y-99581177D01*
X116105254Y-99524642D01*
X116105264Y-99524637D01*
X116228096Y-99442563D01*
X116228100Y-99442560D01*
X116332560Y-99338100D01*
X116332563Y-99338096D01*
X116414637Y-99215264D01*
X116414642Y-99215254D01*
X116471177Y-99078767D01*
X116471179Y-99078759D01*
X116489829Y-98985000D01*
X116024242Y-98985000D01*
X116029556Y-98975796D01*
X116050000Y-98899496D01*
X116050000Y-98820504D01*
X116029556Y-98744204D01*
X116024242Y-98735000D01*
X116489829Y-98735000D01*
X116489829Y-98734999D01*
X116471179Y-98641240D01*
X116471177Y-98641232D01*
X116414642Y-98504745D01*
X116414637Y-98504735D01*
X116332563Y-98381903D01*
X116332560Y-98381899D01*
X116228100Y-98277439D01*
X116228096Y-98277436D01*
X116105264Y-98195362D01*
X116105254Y-98195357D01*
X115968767Y-98138822D01*
X115968759Y-98138820D01*
X115823872Y-98110000D01*
X115325000Y-98110000D01*
X115325000Y-98560000D01*
X115075000Y-98560000D01*
X115075000Y-98110000D01*
X114576128Y-98110000D01*
X114431240Y-98138820D01*
X114431232Y-98138822D01*
X114294745Y-98195357D01*
X114294735Y-98195362D01*
X114171903Y-98277436D01*
X114171899Y-98277439D01*
X114067439Y-98381899D01*
X114067436Y-98381903D01*
X113985362Y-98504735D01*
X113985357Y-98504745D01*
X113928822Y-98641232D01*
X113928820Y-98641240D01*
X113910170Y-98734999D01*
X113910171Y-98735000D01*
X114375758Y-98735000D01*
X114370444Y-98744204D01*
X114350000Y-98820504D01*
X114350000Y-98899496D01*
X114370444Y-98975796D01*
X114375758Y-98985000D01*
X113910170Y-98985000D01*
X112139829Y-98985000D01*
X111674242Y-98985000D01*
X111679556Y-98975796D01*
X111700000Y-98899496D01*
X111700000Y-98820504D01*
X111679556Y-98744204D01*
X111674242Y-98735000D01*
X112139829Y-98735000D01*
X112139829Y-98734999D01*
X112121179Y-98641240D01*
X112121177Y-98641232D01*
X112064642Y-98504745D01*
X112064637Y-98504735D01*
X111982563Y-98381903D01*
X111982560Y-98381899D01*
X111878100Y-98277439D01*
X111878096Y-98277436D01*
X111755264Y-98195362D01*
X111755254Y-98195357D01*
X111618767Y-98138822D01*
X111618759Y-98138820D01*
X111473872Y-98110000D01*
X111125000Y-98110000D01*
X111125000Y-98560000D01*
X110875000Y-98560000D01*
X110875000Y-98110000D01*
X110526128Y-98110000D01*
X110381240Y-98138820D01*
X110381232Y-98138822D01*
X110244745Y-98195357D01*
X110244735Y-98195362D01*
X110121903Y-98277436D01*
X110121899Y-98277439D01*
X110017439Y-98381899D01*
X110017436Y-98381903D01*
X109935362Y-98504735D01*
X109935357Y-98504745D01*
X109878822Y-98641232D01*
X109878820Y-98641240D01*
X109860170Y-98734999D01*
X109860171Y-98735000D01*
X110325758Y-98735000D01*
X110320444Y-98744204D01*
X110300000Y-98820504D01*
X110300000Y-98899496D01*
X110320444Y-98975796D01*
X110325758Y-98985000D01*
X109860170Y-98985000D01*
X108750000Y-98985000D01*
X108750000Y-96566205D01*
X127244750Y-96566205D01*
X127263670Y-96709913D01*
X127263671Y-96709917D01*
X127319137Y-96843827D01*
X127319138Y-96843829D01*
X127319139Y-96843830D01*
X127407379Y-96958826D01*
X127522375Y-97047066D01*
X127547218Y-97057356D01*
X127572301Y-97072147D01*
X127572396Y-97072002D01*
X127575876Y-97074256D01*
X127577055Y-97074951D01*
X127577513Y-97075316D01*
X127936041Y-97260418D01*
X127978214Y-97282191D01*
X128009010Y-97304692D01*
X129984788Y-99280470D01*
X130064712Y-99326614D01*
X130153856Y-99350500D01*
X130153857Y-99350500D01*
X130246144Y-99350500D01*
X141003456Y-99350500D01*
X141070495Y-99370185D01*
X141091137Y-99386819D01*
X142440664Y-100736346D01*
X142457378Y-100757111D01*
X142704826Y-101143151D01*
X142714992Y-101162614D01*
X142719139Y-101172625D01*
X142807379Y-101287621D01*
X142922375Y-101375861D01*
X142922376Y-101375861D01*
X142922377Y-101375862D01*
X142967013Y-101394350D01*
X143056291Y-101431330D01*
X143183280Y-101448048D01*
X143199999Y-101450250D01*
X143200000Y-101450250D01*
X143200001Y-101450250D01*
X143218921Y-101447758D01*
X143343709Y-101431330D01*
X143377290Y-101417419D01*
X143405745Y-101409445D01*
X143412939Y-101408331D01*
X143838278Y-101253022D01*
X143880809Y-101245500D01*
X147901142Y-101245500D01*
X147901144Y-101245500D01*
X147990288Y-101221614D01*
X148009529Y-101210505D01*
X148070212Y-101175470D01*
X148247026Y-100998654D01*
X148308345Y-100965172D01*
X148378037Y-100970156D01*
X148390013Y-100975358D01*
X149485766Y-101521591D01*
X149495706Y-101527130D01*
X149503944Y-101532231D01*
X149507361Y-101534347D01*
X149507368Y-101534350D01*
X149519905Y-101539207D01*
X149530436Y-101543860D01*
X149549471Y-101553349D01*
X149549513Y-101553369D01*
X149557320Y-101557097D01*
X149558051Y-101557431D01*
X149566220Y-101560993D01*
X149576226Y-101562993D01*
X149596706Y-101568959D01*
X149697544Y-101608024D01*
X149898024Y-101645500D01*
X149898026Y-101645500D01*
X150101974Y-101645500D01*
X150101976Y-101645500D01*
X150302456Y-101608024D01*
X150492637Y-101534348D01*
X150666041Y-101426981D01*
X150816764Y-101289579D01*
X150939673Y-101126821D01*
X151030582Y-100944250D01*
X151086397Y-100748083D01*
X151105215Y-100545000D01*
X151434785Y-100545000D01*
X151453602Y-100748082D01*
X151509417Y-100944247D01*
X151509422Y-100944260D01*
X151600327Y-101126821D01*
X151723237Y-101289581D01*
X151873958Y-101426980D01*
X151873960Y-101426982D01*
X151955426Y-101477423D01*
X152047363Y-101534348D01*
X152237544Y-101608024D01*
X152438024Y-101645500D01*
X152438026Y-101645500D01*
X152641974Y-101645500D01*
X152641976Y-101645500D01*
X152842456Y-101608024D01*
X153032637Y-101534348D01*
X153206041Y-101426981D01*
X153356764Y-101289579D01*
X153479673Y-101126821D01*
X153570582Y-100944250D01*
X153626397Y-100748083D01*
X153645215Y-100545000D01*
X153638485Y-100472375D01*
X153626397Y-100341917D01*
X153570582Y-100145750D01*
X153479673Y-99963179D01*
X153356764Y-99800421D01*
X153356762Y-99800418D01*
X153206041Y-99663019D01*
X153206039Y-99663017D01*
X153032642Y-99555655D01*
X153032635Y-99555651D01*
X152937546Y-99518814D01*
X152842456Y-99481976D01*
X152641976Y-99444500D01*
X152438024Y-99444500D01*
X152237544Y-99481976D01*
X152237541Y-99481976D01*
X152237541Y-99481977D01*
X152047364Y-99555651D01*
X152047357Y-99555655D01*
X151873960Y-99663017D01*
X151873958Y-99663019D01*
X151723237Y-99800418D01*
X151600327Y-99963178D01*
X151509422Y-100145739D01*
X151509417Y-100145752D01*
X151453602Y-100341917D01*
X151434785Y-100544999D01*
X151434785Y-100545000D01*
X151105215Y-100545000D01*
X151098485Y-100472375D01*
X151086397Y-100341917D01*
X151030582Y-100145750D01*
X150939673Y-99963179D01*
X150816764Y-99800421D01*
X150816762Y-99800418D01*
X150666041Y-99663019D01*
X150666039Y-99663017D01*
X150492642Y-99555655D01*
X150492635Y-99555651D01*
X150397546Y-99518814D01*
X150302456Y-99481976D01*
X150101976Y-99444500D01*
X149898024Y-99444500D01*
X149746739Y-99472779D01*
X149697538Y-99481977D01*
X149578957Y-99527915D01*
X149566780Y-99531921D01*
X149549518Y-99536627D01*
X149549516Y-99536627D01*
X149530413Y-99546150D01*
X149519893Y-99550797D01*
X149507365Y-99555650D01*
X149495721Y-99562860D01*
X149485767Y-99568406D01*
X148255943Y-100181475D01*
X148200622Y-100194500D01*
X148158856Y-100194500D01*
X148085207Y-100214234D01*
X148085206Y-100214234D01*
X148069714Y-100218384D01*
X148069713Y-100218385D01*
X147989791Y-100264527D01*
X147989786Y-100264531D01*
X147746137Y-100508181D01*
X147684814Y-100541666D01*
X147658456Y-100544500D01*
X143880812Y-100544500D01*
X143838281Y-100536978D01*
X143412932Y-100381666D01*
X143407390Y-100380206D01*
X143407501Y-100379783D01*
X143382574Y-100371300D01*
X143382309Y-100371940D01*
X143376679Y-100369608D01*
X143376678Y-100369607D01*
X143376675Y-100369606D01*
X143357947Y-100363923D01*
X143346517Y-100359833D01*
X143343707Y-100358669D01*
X143336166Y-100356648D01*
X143328543Y-100355001D01*
X142959373Y-100242990D01*
X142907695Y-100212013D01*
X141415213Y-98719531D01*
X141415208Y-98719527D01*
X141335290Y-98673387D01*
X141335289Y-98673386D01*
X141335288Y-98673386D01*
X141246144Y-98649500D01*
X141246143Y-98649500D01*
X130396544Y-98649500D01*
X130329505Y-98629815D01*
X130308863Y-98613181D01*
X129700682Y-98005000D01*
X148894785Y-98005000D01*
X148913602Y-98208082D01*
X148969417Y-98404247D01*
X148969422Y-98404260D01*
X149060327Y-98586821D01*
X149183237Y-98749581D01*
X149333958Y-98886980D01*
X149333960Y-98886982D01*
X149354171Y-98899496D01*
X149507363Y-98994348D01*
X149697544Y-99068024D01*
X149898024Y-99105500D01*
X149898026Y-99105500D01*
X150101974Y-99105500D01*
X150101976Y-99105500D01*
X150302456Y-99068024D01*
X150492637Y-98994348D01*
X150666041Y-98886981D01*
X150816764Y-98749579D01*
X150939673Y-98586821D01*
X151030582Y-98404250D01*
X151086397Y-98208083D01*
X151105215Y-98005000D01*
X151434785Y-98005000D01*
X151453602Y-98208082D01*
X151509417Y-98404247D01*
X151509422Y-98404260D01*
X151600327Y-98586821D01*
X151723237Y-98749581D01*
X151873958Y-98886980D01*
X151873960Y-98886982D01*
X151894171Y-98899496D01*
X152047363Y-98994348D01*
X152237544Y-99068024D01*
X152438024Y-99105500D01*
X152438026Y-99105500D01*
X152641974Y-99105500D01*
X152641976Y-99105500D01*
X152842456Y-99068024D01*
X153032637Y-98994348D01*
X153206041Y-98886981D01*
X153356764Y-98749579D01*
X153479673Y-98586821D01*
X153570582Y-98404250D01*
X153626397Y-98208083D01*
X153645215Y-98005000D01*
X153626397Y-97801917D01*
X153570582Y-97605750D01*
X153568383Y-97601334D01*
X153524562Y-97513329D01*
X153479673Y-97423179D01*
X153356764Y-97260421D01*
X153356762Y-97260418D01*
X153206041Y-97123019D01*
X153206039Y-97123017D01*
X153032642Y-97015655D01*
X153032635Y-97015651D01*
X152937546Y-96978814D01*
X152842456Y-96941976D01*
X152641976Y-96904500D01*
X152438024Y-96904500D01*
X152237544Y-96941976D01*
X152237541Y-96941976D01*
X152237541Y-96941977D01*
X152047364Y-97015651D01*
X152047357Y-97015655D01*
X151873960Y-97123017D01*
X151873958Y-97123019D01*
X151723237Y-97260418D01*
X151600327Y-97423178D01*
X151509422Y-97605739D01*
X151509417Y-97605752D01*
X151453602Y-97801917D01*
X151434785Y-98004999D01*
X151434785Y-98005000D01*
X151105215Y-98005000D01*
X151086397Y-97801917D01*
X151030582Y-97605750D01*
X151028383Y-97601334D01*
X150984562Y-97513329D01*
X150939673Y-97423179D01*
X150816764Y-97260421D01*
X150816762Y-97260418D01*
X150666041Y-97123019D01*
X150666039Y-97123017D01*
X150492642Y-97015655D01*
X150492635Y-97015651D01*
X150397546Y-96978814D01*
X150302456Y-96941976D01*
X150101976Y-96904500D01*
X149898024Y-96904500D01*
X149697544Y-96941976D01*
X149697541Y-96941976D01*
X149697541Y-96941977D01*
X149507364Y-97015651D01*
X149507357Y-97015655D01*
X149333960Y-97123017D01*
X149333958Y-97123019D01*
X149183237Y-97260418D01*
X149060327Y-97423178D01*
X148969422Y-97605739D01*
X148969417Y-97605752D01*
X148913602Y-97801917D01*
X148894785Y-98004999D01*
X148894785Y-98005000D01*
X129700682Y-98005000D01*
X128695682Y-97000000D01*
X130244750Y-97000000D01*
X130250946Y-97047066D01*
X130263670Y-97143708D01*
X130263671Y-97143712D01*
X130319137Y-97277622D01*
X130319138Y-97277624D01*
X130319139Y-97277625D01*
X130407379Y-97392621D01*
X130522375Y-97480861D01*
X130656291Y-97536330D01*
X130783280Y-97553048D01*
X130799999Y-97555250D01*
X130800000Y-97555250D01*
X130800001Y-97555250D01*
X130818921Y-97552758D01*
X130943709Y-97536330D01*
X130977290Y-97522419D01*
X131005745Y-97514445D01*
X131012939Y-97513331D01*
X131438278Y-97358022D01*
X131480809Y-97350500D01*
X143701744Y-97350500D01*
X143768783Y-97370185D01*
X143814538Y-97422989D01*
X143817701Y-97430569D01*
X143879634Y-97594043D01*
X143880904Y-97597330D01*
X143881074Y-97597759D01*
X143882518Y-97601335D01*
X143889059Y-97611151D01*
X143900430Y-97632457D01*
X143919139Y-97677625D01*
X144007379Y-97792621D01*
X144122375Y-97880861D01*
X144256291Y-97936330D01*
X144383280Y-97953048D01*
X144399999Y-97955250D01*
X144400000Y-97955250D01*
X144400001Y-97955250D01*
X144414977Y-97953278D01*
X144543709Y-97936330D01*
X144677625Y-97880861D01*
X144792621Y-97792621D01*
X144880861Y-97677625D01*
X144936330Y-97543709D01*
X144955250Y-97400000D01*
X144936330Y-97256291D01*
X144880861Y-97122375D01*
X144792621Y-97007379D01*
X144677625Y-96919139D01*
X144666570Y-96914560D01*
X144612170Y-96870721D01*
X144590104Y-96804427D01*
X144607383Y-96736728D01*
X144658519Y-96689117D01*
X144666553Y-96685446D01*
X144677625Y-96680861D01*
X144792621Y-96592621D01*
X144880861Y-96477625D01*
X144936330Y-96343709D01*
X144955250Y-96200000D01*
X144936330Y-96056291D01*
X144880861Y-95922375D01*
X144792621Y-95807379D01*
X144677625Y-95719139D01*
X144666570Y-95714560D01*
X144612170Y-95670721D01*
X144590104Y-95604427D01*
X144607383Y-95536728D01*
X144658519Y-95489117D01*
X144666565Y-95485441D01*
X144677625Y-95480861D01*
X144698295Y-95465000D01*
X148894785Y-95465000D01*
X148913602Y-95668082D01*
X148969417Y-95864247D01*
X148969422Y-95864260D01*
X149060327Y-96046821D01*
X149183237Y-96209581D01*
X149333958Y-96346980D01*
X149333960Y-96346982D01*
X149363563Y-96365311D01*
X149507363Y-96454348D01*
X149697544Y-96528024D01*
X149898024Y-96565500D01*
X149898026Y-96565500D01*
X150101974Y-96565500D01*
X150101976Y-96565500D01*
X150302456Y-96528024D01*
X150492637Y-96454348D01*
X150666041Y-96346981D01*
X150816764Y-96209579D01*
X150939673Y-96046821D01*
X151030582Y-95864250D01*
X151086397Y-95668083D01*
X151105215Y-95465000D01*
X151434785Y-95465000D01*
X151453602Y-95668082D01*
X151509417Y-95864247D01*
X151509422Y-95864260D01*
X151600327Y-96046821D01*
X151723237Y-96209581D01*
X151873958Y-96346980D01*
X151873960Y-96346982D01*
X151903563Y-96365311D01*
X152047363Y-96454348D01*
X152237544Y-96528024D01*
X152438024Y-96565500D01*
X152438026Y-96565500D01*
X152641974Y-96565500D01*
X152641976Y-96565500D01*
X152842456Y-96528024D01*
X153032637Y-96454348D01*
X153206041Y-96346981D01*
X153356764Y-96209579D01*
X153479673Y-96046821D01*
X153570582Y-95864250D01*
X153626397Y-95668083D01*
X153645215Y-95465000D01*
X153626397Y-95261917D01*
X153570582Y-95065750D01*
X153565874Y-95056296D01*
X153522621Y-94969431D01*
X153479673Y-94883179D01*
X153356764Y-94720421D01*
X153356762Y-94720418D01*
X153206041Y-94583019D01*
X153206039Y-94583017D01*
X153032642Y-94475655D01*
X153032635Y-94475651D01*
X152935370Y-94437971D01*
X152842456Y-94401976D01*
X152641976Y-94364500D01*
X152438024Y-94364500D01*
X152237544Y-94401976D01*
X152237541Y-94401976D01*
X152237541Y-94401977D01*
X152047364Y-94475651D01*
X152047357Y-94475655D01*
X151873960Y-94583017D01*
X151873958Y-94583019D01*
X151723237Y-94720418D01*
X151600327Y-94883178D01*
X151509422Y-95065739D01*
X151509417Y-95065752D01*
X151453602Y-95261917D01*
X151434785Y-95464999D01*
X151434785Y-95465000D01*
X151105215Y-95465000D01*
X151086397Y-95261917D01*
X151030582Y-95065750D01*
X151025874Y-95056296D01*
X150982621Y-94969431D01*
X150939673Y-94883179D01*
X150816764Y-94720421D01*
X150816762Y-94720418D01*
X150666041Y-94583019D01*
X150666039Y-94583017D01*
X150492642Y-94475655D01*
X150492635Y-94475651D01*
X150395370Y-94437971D01*
X150302456Y-94401976D01*
X150101976Y-94364500D01*
X149898024Y-94364500D01*
X149697544Y-94401976D01*
X149697541Y-94401976D01*
X149697541Y-94401977D01*
X149507364Y-94475651D01*
X149507357Y-94475655D01*
X149333960Y-94583017D01*
X149333958Y-94583019D01*
X149183237Y-94720418D01*
X149060327Y-94883178D01*
X148969422Y-95065739D01*
X148969417Y-95065752D01*
X148913602Y-95261917D01*
X148894785Y-95464999D01*
X148894785Y-95465000D01*
X144698295Y-95465000D01*
X144792621Y-95392621D01*
X144880861Y-95277625D01*
X144936330Y-95143709D01*
X144955250Y-95000000D01*
X144936330Y-94856291D01*
X144880861Y-94722375D01*
X144792621Y-94607379D01*
X144677625Y-94519139D01*
X144677624Y-94519138D01*
X144677622Y-94519137D01*
X144543712Y-94463671D01*
X144543710Y-94463670D01*
X144543709Y-94463670D01*
X144437500Y-94449687D01*
X144400001Y-94444750D01*
X144399999Y-94444750D01*
X144256291Y-94463670D01*
X144256287Y-94463671D01*
X144122377Y-94519137D01*
X144043393Y-94579744D01*
X144007379Y-94607379D01*
X143919139Y-94722375D01*
X143919138Y-94722376D01*
X143919138Y-94722377D01*
X143898074Y-94773229D01*
X143888676Y-94791477D01*
X143879643Y-94805934D01*
X143879637Y-94805945D01*
X143817701Y-94969431D01*
X143775543Y-95025148D01*
X143709954Y-95049228D01*
X143701744Y-95049500D01*
X131480812Y-95049500D01*
X131438281Y-95041978D01*
X131012941Y-94886669D01*
X131012932Y-94886667D01*
X131003974Y-94885174D01*
X130976914Y-94877423D01*
X130943709Y-94863670D01*
X130871854Y-94854210D01*
X130800001Y-94844750D01*
X130799999Y-94844750D01*
X130656291Y-94863670D01*
X130656287Y-94863671D01*
X130522377Y-94919137D01*
X130407379Y-95007379D01*
X130319137Y-95122377D01*
X130263672Y-95256285D01*
X130263670Y-95256291D01*
X130244750Y-95399999D01*
X130244750Y-95400000D01*
X130263670Y-95543708D01*
X130263671Y-95543712D01*
X130319138Y-95677623D01*
X130319139Y-95677625D01*
X130355118Y-95724514D01*
X130380312Y-95789683D01*
X130366274Y-95858128D01*
X130355118Y-95875486D01*
X130319139Y-95922374D01*
X130319138Y-95922376D01*
X130263671Y-96056287D01*
X130263670Y-96056291D01*
X130248228Y-96173586D01*
X130244750Y-96200000D01*
X130256411Y-96288576D01*
X130263670Y-96343708D01*
X130263671Y-96343712D01*
X130319138Y-96477623D01*
X130319139Y-96477625D01*
X130355118Y-96524514D01*
X130380312Y-96589683D01*
X130366274Y-96658128D01*
X130355118Y-96675486D01*
X130319139Y-96722374D01*
X130319138Y-96722376D01*
X130263671Y-96856287D01*
X130263670Y-96856291D01*
X130244750Y-97000000D01*
X128695682Y-97000000D01*
X128514178Y-96818496D01*
X128487126Y-96777850D01*
X128463218Y-96719530D01*
X128318007Y-96365311D01*
X128317960Y-96365195D01*
X128310330Y-96353698D01*
X128299091Y-96332593D01*
X128280861Y-96288580D01*
X128192621Y-96173584D01*
X128077625Y-96085344D01*
X128077624Y-96085343D01*
X128077622Y-96085342D01*
X127943712Y-96029876D01*
X127943710Y-96029875D01*
X127943709Y-96029875D01*
X127871854Y-96020415D01*
X127800001Y-96010955D01*
X127799999Y-96010955D01*
X127656291Y-96029875D01*
X127656287Y-96029876D01*
X127522377Y-96085342D01*
X127407379Y-96173584D01*
X127319137Y-96288582D01*
X127263671Y-96422492D01*
X127263670Y-96422496D01*
X127244750Y-96566204D01*
X127244750Y-96566205D01*
X108750000Y-96566205D01*
X108750000Y-91124000D01*
X108769685Y-91056961D01*
X108822489Y-91011206D01*
X108874000Y-91000000D01*
X115363534Y-91000000D01*
X115430573Y-91019685D01*
G37*
%TD.AperFunction*%
%TD*%
%TA.AperFunction,Conductor*%
%TO.N,/~{RESET}*%
G36*
X132883641Y-99977050D02*
G01*
X132889503Y-99983148D01*
X132999115Y-100245489D01*
X132999142Y-100254444D01*
X132999115Y-100254511D01*
X132889503Y-100516851D01*
X132883151Y-100523163D01*
X132874694Y-100523329D01*
X132740947Y-100474493D01*
X132407687Y-100352806D01*
X132401091Y-100346750D01*
X132400000Y-100341816D01*
X132400000Y-100158183D01*
X132403427Y-100149910D01*
X132407687Y-100147193D01*
X132874697Y-99976669D01*
X132883641Y-99977050D01*
G37*
%TD.AperFunction*%
%TD*%
%TA.AperFunction,Conductor*%
%TO.N,/~{RESET}*%
G36*
X123770691Y-107758427D02*
G01*
X123773097Y-107761920D01*
X124127032Y-108552694D01*
X124127284Y-108561645D01*
X124121133Y-108568153D01*
X124120850Y-108568275D01*
X123674497Y-108754127D01*
X123665543Y-108754144D01*
X123665503Y-108754127D01*
X123219149Y-108568275D01*
X123212828Y-108561931D01*
X123212845Y-108552977D01*
X123212967Y-108552694D01*
X123566903Y-107761920D01*
X123573411Y-107755769D01*
X123577582Y-107755000D01*
X123762418Y-107755000D01*
X123770691Y-107758427D01*
G37*
%TD.AperFunction*%
%TD*%
%TA.AperFunction,Conductor*%
%TO.N,Net-(J2-CC1)*%
G36*
X114133641Y-101727050D02*
G01*
X114139503Y-101733148D01*
X114249115Y-101995489D01*
X114249142Y-102004444D01*
X114249115Y-102004511D01*
X114139503Y-102266851D01*
X114133151Y-102273163D01*
X114124694Y-102273329D01*
X113990947Y-102224493D01*
X113657687Y-102102806D01*
X113651091Y-102096750D01*
X113650000Y-102091816D01*
X113650000Y-101908183D01*
X113653427Y-101899910D01*
X113657687Y-101897193D01*
X114124697Y-101726669D01*
X114133641Y-101727050D01*
G37*
%TD.AperFunction*%
%TD*%
%TA.AperFunction,Conductor*%
%TO.N,Net-(J2-CC1)*%
G36*
X113092313Y-101897193D02*
G01*
X113098909Y-101903249D01*
X113100000Y-101908183D01*
X113100000Y-102091816D01*
X113096573Y-102100089D01*
X113092313Y-102102806D01*
X112625305Y-102273330D01*
X112616358Y-102272949D01*
X112610496Y-102266851D01*
X112500883Y-102004509D01*
X112500857Y-101995556D01*
X112500862Y-101995542D01*
X112610496Y-101733147D01*
X112616848Y-101726836D01*
X112625302Y-101726669D01*
X113092313Y-101897193D01*
G37*
%TD.AperFunction*%
%TD*%
%TA.AperFunction,Conductor*%
%TO.N,VBUS*%
G36*
X114198362Y-93403427D02*
G01*
X114201630Y-93409777D01*
X114297737Y-93986422D01*
X114295717Y-93995145D01*
X114288119Y-93999886D01*
X114286235Y-94000045D01*
X114000039Y-94000999D01*
X113999961Y-94000999D01*
X113713764Y-94000045D01*
X113705502Y-93996591D01*
X113702103Y-93988306D01*
X113702260Y-93986434D01*
X113798370Y-93409775D01*
X113803111Y-93402179D01*
X113809911Y-93400000D01*
X114190089Y-93400000D01*
X114198362Y-93403427D01*
G37*
%TD.AperFunction*%
%TD*%
%TA.AperFunction,Conductor*%
%TO.N,VBUS*%
G36*
X114286235Y-93399954D02*
G01*
X114294497Y-93403408D01*
X114297896Y-93411693D01*
X114297737Y-93413577D01*
X114201630Y-93990223D01*
X114196889Y-93997821D01*
X114190089Y-94000000D01*
X113809911Y-94000000D01*
X113801638Y-93996573D01*
X113798370Y-93990223D01*
X113702262Y-93413574D01*
X113704282Y-93404854D01*
X113711880Y-93400113D01*
X113713762Y-93399954D01*
X114000000Y-93399000D01*
X114286235Y-93399954D01*
G37*
%TD.AperFunction*%
%TD*%
%TA.AperFunction,Conductor*%
%TO.N,VBUS*%
G36*
X114286235Y-94599954D02*
G01*
X114294497Y-94603408D01*
X114297896Y-94611693D01*
X114297737Y-94613577D01*
X114201630Y-95190223D01*
X114196889Y-95197821D01*
X114190089Y-95200000D01*
X113809911Y-95200000D01*
X113801638Y-95196573D01*
X113798370Y-95190223D01*
X113702262Y-94613574D01*
X113704282Y-94604854D01*
X113711880Y-94600113D01*
X113713762Y-94599954D01*
X114000000Y-94599000D01*
X114286235Y-94599954D01*
G37*
%TD.AperFunction*%
%TD*%
%TA.AperFunction,Conductor*%
%TO.N,VBUS*%
G36*
X114198362Y-94603427D02*
G01*
X114201630Y-94609777D01*
X114297737Y-95186422D01*
X114295717Y-95195145D01*
X114288119Y-95199886D01*
X114286235Y-95200045D01*
X114000039Y-95200999D01*
X113999961Y-95200999D01*
X113713764Y-95200045D01*
X113705502Y-95196591D01*
X113702103Y-95188306D01*
X113702260Y-95186434D01*
X113798370Y-94609775D01*
X113803111Y-94602179D01*
X113809911Y-94600000D01*
X114190089Y-94600000D01*
X114198362Y-94603427D01*
G37*
%TD.AperFunction*%
%TD*%
%TA.AperFunction,Conductor*%
%TO.N,VBUS*%
G36*
X114198362Y-94003427D02*
G01*
X114201630Y-94009777D01*
X114297737Y-94586422D01*
X114295717Y-94595145D01*
X114288119Y-94599886D01*
X114286235Y-94600045D01*
X114000039Y-94600999D01*
X113999961Y-94600999D01*
X113713764Y-94600045D01*
X113705502Y-94596591D01*
X113702103Y-94588306D01*
X113702260Y-94586434D01*
X113798370Y-94009775D01*
X113803111Y-94002179D01*
X113809911Y-94000000D01*
X114190089Y-94000000D01*
X114198362Y-94003427D01*
G37*
%TD.AperFunction*%
%TD*%
%TA.AperFunction,Conductor*%
%TO.N,VBUS*%
G36*
X114286235Y-93999954D02*
G01*
X114294497Y-94003408D01*
X114297896Y-94011693D01*
X114297737Y-94013577D01*
X114201630Y-94590223D01*
X114196889Y-94597821D01*
X114190089Y-94600000D01*
X113809911Y-94600000D01*
X113801638Y-94596573D01*
X113798370Y-94590223D01*
X113702262Y-94013574D01*
X113704282Y-94004854D01*
X113711880Y-94000113D01*
X113713762Y-93999954D01*
X114000000Y-93999000D01*
X114286235Y-93999954D01*
G37*
%TD.AperFunction*%
%TD*%
%TA.AperFunction,Conductor*%
%TO.N,VBUS*%
G36*
X117516851Y-100860496D02*
G01*
X117523163Y-100866848D01*
X117523330Y-100875305D01*
X117352807Y-101342313D01*
X117346751Y-101348909D01*
X117341817Y-101350000D01*
X117158183Y-101350000D01*
X117149910Y-101346573D01*
X117147193Y-101342313D01*
X116976669Y-100875302D01*
X116977050Y-100866358D01*
X116983147Y-100860496D01*
X117245490Y-100750883D01*
X117254444Y-100750857D01*
X117516851Y-100860496D01*
G37*
%TD.AperFunction*%
%TD*%
%TA.AperFunction,Conductor*%
%TO.N,VBUS*%
G36*
X117349936Y-102064281D02*
G01*
X117352722Y-102068734D01*
X117513298Y-102533622D01*
X117512760Y-102542561D01*
X117506750Y-102548238D01*
X117244231Y-102657924D01*
X117235276Y-102657951D01*
X117235209Y-102657924D01*
X116973077Y-102548400D01*
X116966765Y-102542048D01*
X116966680Y-102533374D01*
X117147103Y-102068322D01*
X117153290Y-102061849D01*
X117158011Y-102060854D01*
X117341663Y-102060854D01*
X117349936Y-102064281D01*
G37*
%TD.AperFunction*%
%TD*%
%TA.AperFunction,Conductor*%
%TO.N,VBUS*%
G36*
X114230766Y-92802131D02*
G01*
X114499664Y-93071029D01*
X114503091Y-93079302D01*
X114501762Y-93084718D01*
X114282104Y-93505343D01*
X114275237Y-93511090D01*
X114267289Y-93510750D01*
X114001483Y-93401606D01*
X113997626Y-93399029D01*
X113796507Y-93196565D01*
X113793108Y-93188280D01*
X113796562Y-93180018D01*
X113796946Y-93179654D01*
X114214643Y-92801727D01*
X114223077Y-92798719D01*
X114230766Y-92802131D01*
G37*
%TD.AperFunction*%
%TD*%
%TA.AperFunction,Conductor*%
%TO.N,VBUS*%
G36*
X151486512Y-91584385D02*
G01*
X152181598Y-91864340D01*
X152854332Y-92135292D01*
X152860726Y-92141562D01*
X152860814Y-92150516D01*
X152860775Y-92150611D01*
X152542562Y-92921214D01*
X152536237Y-92927553D01*
X152536214Y-92927562D01*
X151765611Y-93245775D01*
X151756656Y-93245766D01*
X151750331Y-93239427D01*
X151750292Y-93239332D01*
X151311758Y-92150516D01*
X151199386Y-91871512D01*
X151199474Y-91862560D01*
X151201963Y-91858873D01*
X151473871Y-91586965D01*
X151482143Y-91583539D01*
X151486512Y-91584385D01*
G37*
%TD.AperFunction*%
%TD*%
%TA.AperFunction,Conductor*%
%TO.N,/I2C3_SDA*%
G36*
X134853864Y-106308475D02*
G01*
X135304671Y-106518123D01*
X135310726Y-106524718D01*
X135310559Y-106533175D01*
X135202563Y-106796184D01*
X135196251Y-106802536D01*
X135196184Y-106802563D01*
X134933175Y-106910559D01*
X134924220Y-106910532D01*
X134918123Y-106904671D01*
X134708475Y-106453865D01*
X134708095Y-106444920D01*
X134710810Y-106440662D01*
X134840661Y-106310811D01*
X134848933Y-106307385D01*
X134853864Y-106308475D01*
G37*
%TD.AperFunction*%
%TD*%
%TA.AperFunction,Conductor*%
%TO.N,/I2C3_SDA*%
G36*
X131275779Y-102489467D02*
G01*
X131281877Y-102495329D01*
X131491523Y-102946132D01*
X131491904Y-102955079D01*
X131489187Y-102959339D01*
X131359339Y-103089187D01*
X131351066Y-103092614D01*
X131346132Y-103091523D01*
X131052736Y-102955079D01*
X130895328Y-102881876D01*
X130889273Y-102875281D01*
X130889439Y-102866825D01*
X130997436Y-102603814D01*
X131003746Y-102597464D01*
X131266825Y-102489440D01*
X131275779Y-102489467D01*
G37*
%TD.AperFunction*%
%TD*%
%TA.AperFunction,Conductor*%
%TO.N,/I2C3_SCL*%
G36*
X130611504Y-102932667D02*
G01*
X130616805Y-102937090D01*
X130867991Y-103323786D01*
X130869624Y-103332590D01*
X130866452Y-103338432D01*
X130736659Y-103468225D01*
X130728386Y-103471652D01*
X130725053Y-103471167D01*
X130231958Y-103324612D01*
X130225004Y-103318970D01*
X130224076Y-103310064D01*
X130224462Y-103308968D01*
X130331794Y-103047575D01*
X130338104Y-103041225D01*
X130602550Y-102932640D01*
X130611504Y-102932667D01*
G37*
%TD.AperFunction*%
%TD*%
%TA.AperFunction,Conductor*%
%TO.N,/I2C3_SCL*%
G36*
X134781031Y-107234663D02*
G01*
X135042147Y-107275383D01*
X135043621Y-107275713D01*
X135099288Y-107292058D01*
X135128038Y-107300500D01*
X135188328Y-107300500D01*
X135196601Y-107303927D01*
X135200028Y-107312172D01*
X135200695Y-107595820D01*
X135197288Y-107604102D01*
X135197241Y-107604149D01*
X134997052Y-107803008D01*
X134988767Y-107806407D01*
X134980505Y-107802953D01*
X134979725Y-107802084D01*
X134640382Y-107383354D01*
X134637837Y-107374772D01*
X134641199Y-107367719D01*
X134770968Y-107237950D01*
X134779240Y-107234524D01*
X134781031Y-107234663D01*
G37*
%TD.AperFunction*%
%TD*%
%TA.AperFunction,Conductor*%
%TO.N,Net-(U1-BOOT0)*%
G36*
X128992313Y-106697193D02*
G01*
X128998909Y-106703249D01*
X129000000Y-106708183D01*
X129000000Y-106891816D01*
X128996573Y-106900089D01*
X128992313Y-106902806D01*
X128525305Y-107073330D01*
X128516358Y-107072949D01*
X128510496Y-107066851D01*
X128400883Y-106804509D01*
X128400857Y-106795556D01*
X128400862Y-106795542D01*
X128510496Y-106533147D01*
X128516848Y-106526836D01*
X128525302Y-106526669D01*
X128992313Y-106697193D01*
G37*
%TD.AperFunction*%
%TD*%
%TA.AperFunction,Conductor*%
%TO.N,Net-(U1-BOOT0)*%
G36*
X130683641Y-106527050D02*
G01*
X130689503Y-106533148D01*
X130799115Y-106795489D01*
X130799142Y-106804444D01*
X130799115Y-106804511D01*
X130689503Y-107066851D01*
X130683151Y-107073163D01*
X130674694Y-107073329D01*
X130540947Y-107024493D01*
X130207687Y-106902806D01*
X130201091Y-106896750D01*
X130200000Y-106891816D01*
X130200000Y-106708183D01*
X130203427Y-106699910D01*
X130207687Y-106697193D01*
X130674697Y-106526669D01*
X130683641Y-106527050D01*
G37*
%TD.AperFunction*%
%TD*%
%TA.AperFunction,Conductor*%
%TO.N,/SPI1_MISO*%
G36*
X144283641Y-95927050D02*
G01*
X144289503Y-95933148D01*
X144399115Y-96195489D01*
X144399142Y-96204444D01*
X144399115Y-96204511D01*
X144289503Y-96466851D01*
X144283151Y-96473163D01*
X144274694Y-96473329D01*
X144140947Y-96424493D01*
X143807687Y-96302806D01*
X143801091Y-96296750D01*
X143800000Y-96291816D01*
X143800000Y-96108183D01*
X143803427Y-96099910D01*
X143807687Y-96097193D01*
X144274697Y-95926669D01*
X144283641Y-95927050D01*
G37*
%TD.AperFunction*%
%TD*%
%TA.AperFunction,Conductor*%
%TO.N,/SPI1_MISO*%
G36*
X131392313Y-96097193D02*
G01*
X131398909Y-96103249D01*
X131400000Y-96108183D01*
X131400000Y-96291816D01*
X131396573Y-96300089D01*
X131392313Y-96302806D01*
X130925305Y-96473330D01*
X130916358Y-96472949D01*
X130910496Y-96466851D01*
X130800883Y-96204509D01*
X130800857Y-96195556D01*
X130800862Y-96195542D01*
X130910496Y-95933147D01*
X130916848Y-95926836D01*
X130925302Y-95926669D01*
X131392313Y-96097193D01*
G37*
%TD.AperFunction*%
%TD*%
%TA.AperFunction,Conductor*%
%TO.N,/SPI1_MOSI*%
G36*
X131392313Y-96897193D02*
G01*
X131398909Y-96903249D01*
X131400000Y-96908183D01*
X131400000Y-97091816D01*
X131396573Y-97100089D01*
X131392313Y-97102806D01*
X130925305Y-97273330D01*
X130916358Y-97272949D01*
X130910496Y-97266851D01*
X130800883Y-97004509D01*
X130800857Y-96995556D01*
X130800862Y-96995542D01*
X130910496Y-96733147D01*
X130916848Y-96726836D01*
X130925302Y-96726669D01*
X131392313Y-96897193D01*
G37*
%TD.AperFunction*%
%TD*%
%TA.AperFunction,Conductor*%
%TO.N,/SPI1_MOSI*%
G36*
X143981784Y-96906533D02*
G01*
X144503918Y-97118418D01*
X144510296Y-97124704D01*
X144510360Y-97133658D01*
X144510342Y-97133703D01*
X144402852Y-97395489D01*
X144396540Y-97401840D01*
X144396510Y-97401852D01*
X144396493Y-97401860D01*
X144133972Y-97510208D01*
X144125017Y-97510197D01*
X144118693Y-97503857D01*
X144118567Y-97503538D01*
X144079341Y-97400000D01*
X143966444Y-97102003D01*
X143965685Y-97097858D01*
X143965685Y-96917374D01*
X143969112Y-96909101D01*
X143977385Y-96905674D01*
X143981784Y-96906533D01*
G37*
%TD.AperFunction*%
%TD*%
%TA.AperFunction,Conductor*%
%TO.N,/SPI1_SCK*%
G36*
X144133966Y-94889788D02*
G01*
X144396494Y-94998140D01*
X144402833Y-95004463D01*
X144402852Y-95004510D01*
X144510342Y-95266296D01*
X144510315Y-95275251D01*
X144503963Y-95281563D01*
X144503918Y-95281581D01*
X143981784Y-95493466D01*
X143972830Y-95493402D01*
X143966544Y-95487024D01*
X143965685Y-95482625D01*
X143965685Y-95302141D01*
X143966444Y-95297996D01*
X143972670Y-95281563D01*
X144118568Y-94896459D01*
X144124702Y-94889938D01*
X144133653Y-94889665D01*
X144133966Y-94889788D01*
G37*
%TD.AperFunction*%
%TD*%
%TA.AperFunction,Conductor*%
%TO.N,/SPI1_SCK*%
G36*
X131392313Y-95297193D02*
G01*
X131398909Y-95303249D01*
X131400000Y-95308183D01*
X131400000Y-95491816D01*
X131396573Y-95500089D01*
X131392313Y-95502806D01*
X130925305Y-95673330D01*
X130916358Y-95672949D01*
X130910496Y-95666851D01*
X130800883Y-95404509D01*
X130800857Y-95395556D01*
X130800862Y-95395542D01*
X130910496Y-95133147D01*
X130916848Y-95126836D01*
X130925302Y-95126669D01*
X131392313Y-95297193D01*
G37*
%TD.AperFunction*%
%TD*%
%TA.AperFunction,Conductor*%
%TO.N,/SPI2_SCK*%
G36*
X142811100Y-100465005D02*
G01*
X143302492Y-100614100D01*
X143309413Y-100619780D01*
X143310290Y-100628692D01*
X143309917Y-100629739D01*
X143202563Y-100891184D01*
X143196251Y-100897536D01*
X143196184Y-100897563D01*
X142931863Y-101006098D01*
X142922908Y-101006071D01*
X142917570Y-101001590D01*
X142668049Y-100612316D01*
X142666470Y-100603503D01*
X142669625Y-100597733D01*
X142799431Y-100467927D01*
X142807703Y-100464501D01*
X142811100Y-100465005D01*
G37*
%TD.AperFunction*%
%TD*%
%TA.AperFunction,Conductor*%
%TO.N,/SPI2_SCK*%
G36*
X149679193Y-99770544D02*
G01*
X149679527Y-99771275D01*
X149999134Y-100540511D01*
X149999143Y-100549466D01*
X149999134Y-100549489D01*
X149679527Y-101318724D01*
X149673188Y-101325049D01*
X149664233Y-101325040D01*
X149663502Y-101324706D01*
X148306480Y-100648230D01*
X148300605Y-100641472D01*
X148300000Y-100637759D01*
X148300000Y-100452240D01*
X148303427Y-100443967D01*
X148306476Y-100441771D01*
X149663503Y-99765292D01*
X149672435Y-99764669D01*
X149679193Y-99770544D01*
G37*
%TD.AperFunction*%
%TD*%
%TA.AperFunction,Conductor*%
%TO.N,/SPI2_SCK*%
G36*
X128075289Y-96455873D02*
G01*
X128081601Y-96462225D01*
X128081604Y-96462231D01*
X128271761Y-96926089D01*
X128271728Y-96935044D01*
X128269208Y-96938800D01*
X128139338Y-97068670D01*
X128131065Y-97072097D01*
X128125698Y-97070793D01*
X127694724Y-96848288D01*
X127688944Y-96841448D01*
X127689267Y-96833449D01*
X127797436Y-96570019D01*
X127803746Y-96563669D01*
X128066336Y-96455846D01*
X128075289Y-96455873D01*
G37*
%TD.AperFunction*%
%TD*%
%TA.AperFunction,Conductor*%
%TO.N,/SPI2_SCK*%
G36*
X143792313Y-100792193D02*
G01*
X143798909Y-100798249D01*
X143800000Y-100803183D01*
X143800000Y-100986816D01*
X143796573Y-100995089D01*
X143792313Y-100997806D01*
X143325305Y-101168330D01*
X143316358Y-101167949D01*
X143310496Y-101161851D01*
X143200883Y-100899509D01*
X143200857Y-100890556D01*
X143200862Y-100890542D01*
X143310496Y-100628147D01*
X143316848Y-100621836D01*
X143325302Y-100621669D01*
X143792313Y-100792193D01*
G37*
%TD.AperFunction*%
%TD*%
%TA.AperFunction,Conductor*%
%TO.N,/SPI2_CS*%
G36*
X143341072Y-104196088D02*
G01*
X143611445Y-104340551D01*
X143765479Y-104422853D01*
X143771161Y-104429774D01*
X143770788Y-104437616D01*
X143662563Y-104701184D01*
X143656251Y-104707536D01*
X143656184Y-104707563D01*
X143393830Y-104815290D01*
X143384875Y-104815263D01*
X143378563Y-104808911D01*
X143378515Y-104808792D01*
X143194798Y-104340550D01*
X143194967Y-104331598D01*
X143197414Y-104328008D01*
X143327288Y-104198134D01*
X143335560Y-104194708D01*
X143341072Y-104196088D01*
G37*
%TD.AperFunction*%
%TD*%
%TA.AperFunction,Conductor*%
%TO.N,/SPI2_CS*%
G36*
X133192313Y-101097193D02*
G01*
X133198909Y-101103249D01*
X133200000Y-101108183D01*
X133200000Y-101291816D01*
X133196573Y-101300089D01*
X133192313Y-101302806D01*
X132725305Y-101473330D01*
X132716358Y-101472949D01*
X132710496Y-101466851D01*
X132600883Y-101204509D01*
X132600857Y-101195556D01*
X132600862Y-101195542D01*
X132710496Y-100933147D01*
X132716848Y-100926836D01*
X132725302Y-100926669D01*
X133192313Y-101097193D01*
G37*
%TD.AperFunction*%
%TD*%
M02*
