%TF.GenerationSoftware,KiCad,Pcbnew,8.0.0*%
%TF.CreationDate,2024-03-25T21:44:05+01:00*%
%TF.ProjectId,expander-hw,65787061-6e64-4657-922d-68772e6b6963,rev?*%
%TF.SameCoordinates,Original*%
%TF.FileFunction,Soldermask,Top*%
%TF.FilePolarity,Negative*%
%FSLAX46Y46*%
G04 Gerber Fmt 4.6, Leading zero omitted, Abs format (unit mm)*
G04 Created by KiCad (PCBNEW 8.0.0) date 2024-03-25 21:44:05*
%MOMM*%
%LPD*%
G01*
G04 APERTURE LIST*
G04 Aperture macros list*
%AMRoundRect*
0 Rectangle with rounded corners*
0 $1 Rounding radius*
0 $2 $3 $4 $5 $6 $7 $8 $9 X,Y pos of 4 corners*
0 Add a 4 corners polygon primitive as box body*
4,1,4,$2,$3,$4,$5,$6,$7,$8,$9,$2,$3,0*
0 Add four circle primitives for the rounded corners*
1,1,$1+$1,$2,$3*
1,1,$1+$1,$4,$5*
1,1,$1+$1,$6,$7*
1,1,$1+$1,$8,$9*
0 Add four rect primitives between the rounded corners*
20,1,$1+$1,$2,$3,$4,$5,0*
20,1,$1+$1,$4,$5,$6,$7,0*
20,1,$1+$1,$6,$7,$8,$9,0*
20,1,$1+$1,$8,$9,$2,$3,0*%
%AMFreePoly0*
4,1,9,3.862500,-0.866500,0.737500,-0.866500,0.737500,-0.450000,-0.737500,-0.450000,-0.737500,0.450000,0.737500,0.450000,0.737500,0.866500,3.862500,0.866500,3.862500,-0.866500,3.862500,-0.866500,$1*%
G04 Aperture macros list end*
%ADD10RoundRect,0.225000X0.225000X0.250000X-0.225000X0.250000X-0.225000X-0.250000X0.225000X-0.250000X0*%
%ADD11RoundRect,0.250000X-0.250000X-0.475000X0.250000X-0.475000X0.250000X0.475000X-0.250000X0.475000X0*%
%ADD12RoundRect,0.250000X-0.475000X0.250000X-0.475000X-0.250000X0.475000X-0.250000X0.475000X0.250000X0*%
%ADD13C,0.650000*%
%ADD14R,1.240000X0.600000*%
%ADD15R,1.240000X0.300000*%
%ADD16O,2.100000X1.000000*%
%ADD17O,1.800000X1.000000*%
%ADD18R,1.200000X1.400000*%
%ADD19RoundRect,0.200000X0.200000X0.275000X-0.200000X0.275000X-0.200000X-0.275000X0.200000X-0.275000X0*%
%ADD20R,1.000000X1.000000*%
%ADD21O,1.000000X1.000000*%
%ADD22RoundRect,0.200000X-0.275000X0.200000X-0.275000X-0.200000X0.275000X-0.200000X0.275000X0.200000X0*%
%ADD23RoundRect,0.200000X0.275000X-0.200000X0.275000X0.200000X-0.275000X0.200000X-0.275000X-0.200000X0*%
%ADD24RoundRect,0.250000X0.475000X-0.250000X0.475000X0.250000X-0.475000X0.250000X-0.475000X-0.250000X0*%
%ADD25RoundRect,0.225000X-0.225000X-0.250000X0.225000X-0.250000X0.225000X0.250000X-0.225000X0.250000X0*%
%ADD26RoundRect,0.225000X0.225000X-0.425000X0.225000X0.425000X-0.225000X0.425000X-0.225000X-0.425000X0*%
%ADD27FreePoly0,90.000000*%
%ADD28RoundRect,0.150000X-0.825000X-0.150000X0.825000X-0.150000X0.825000X0.150000X-0.825000X0.150000X0*%
%ADD29RoundRect,0.150000X0.512500X0.150000X-0.512500X0.150000X-0.512500X-0.150000X0.512500X-0.150000X0*%
%ADD30R,1.700000X1.700000*%
%ADD31O,1.700000X1.700000*%
%ADD32RoundRect,0.225000X-0.250000X0.225000X-0.250000X-0.225000X0.250000X-0.225000X0.250000X0.225000X0*%
%ADD33RoundRect,0.075000X0.700000X0.075000X-0.700000X0.075000X-0.700000X-0.075000X0.700000X-0.075000X0*%
%ADD34RoundRect,0.075000X0.075000X0.700000X-0.075000X0.700000X-0.075000X-0.700000X0.075000X-0.700000X0*%
G04 APERTURE END LIST*
D10*
%TO.C,C4*%
X121975000Y-93400000D03*
X120425000Y-93400000D03*
%TD*%
D11*
%TO.C,C8*%
X116450000Y-93400000D03*
X118350000Y-93400000D03*
%TD*%
D12*
%TO.C,C7*%
X120600000Y-95600000D03*
X120600000Y-97500000D03*
%TD*%
D13*
%TO.C,J2*%
X114680000Y-100290000D03*
X114680000Y-106070000D03*
D14*
X115800000Y-99980000D03*
X115800000Y-100780000D03*
D15*
X115800000Y-101930000D03*
X115800000Y-102930000D03*
X115800000Y-103430000D03*
X115800000Y-104430000D03*
D14*
X115800000Y-105580000D03*
X115800000Y-106380000D03*
X115800000Y-106380000D03*
X115800000Y-105580000D03*
D15*
X115800000Y-104930000D03*
X115800000Y-103930000D03*
X115800000Y-102430000D03*
X115800000Y-101430000D03*
D14*
X115800000Y-100780000D03*
X115800000Y-99980000D03*
D16*
X115200000Y-98860000D03*
D17*
X111000000Y-98860000D03*
D16*
X115200000Y-107500000D03*
D17*
X111000000Y-107500000D03*
%TD*%
D18*
%TO.C,X1*%
X138450000Y-103500000D03*
X138450000Y-101300000D03*
X136750000Y-101300000D03*
X136750000Y-103500000D03*
%TD*%
D19*
%TO.C,R2*%
X115825000Y-109750000D03*
X114175000Y-109750000D03*
%TD*%
D20*
%TO.C,J1*%
X118590000Y-110025000D03*
D21*
X118590000Y-108755000D03*
X119860000Y-110025000D03*
X119860000Y-108755000D03*
X121130000Y-110025000D03*
X121130000Y-108755000D03*
X122400000Y-110025000D03*
X122400000Y-108755000D03*
X123670000Y-110025000D03*
X123670000Y-108755000D03*
%TD*%
D22*
%TO.C,R4*%
X132800000Y-108375000D03*
X132800000Y-110025000D03*
%TD*%
D19*
%TO.C,R1*%
X111987500Y-109750000D03*
X110337500Y-109750000D03*
%TD*%
D23*
%TO.C,R7*%
X128000000Y-110025000D03*
X128000000Y-108375000D03*
%TD*%
D24*
%TO.C,C6*%
X139200000Y-95550000D03*
X139200000Y-93650000D03*
%TD*%
D25*
%TO.C,C2*%
X135050000Y-105600000D03*
X136600000Y-105600000D03*
%TD*%
D26*
%TO.C,U3*%
X111000000Y-96450000D03*
D27*
X112500000Y-96362500D03*
D26*
X114000000Y-96450000D03*
%TD*%
D28*
%TO.C,U6*%
X141725000Y-106895000D03*
X141725000Y-108165000D03*
X141725000Y-109435000D03*
X141725000Y-110705000D03*
X146675000Y-110705000D03*
X146675000Y-109435000D03*
X146675000Y-108165000D03*
X146675000Y-106895000D03*
%TD*%
%TO.C,U2*%
X141725000Y-100895000D03*
X141725000Y-102165000D03*
X141725000Y-103435000D03*
X141725000Y-104705000D03*
X146675000Y-104705000D03*
X146675000Y-103435000D03*
X146675000Y-102165000D03*
X146675000Y-100895000D03*
%TD*%
D11*
%TO.C,C5*%
X116450000Y-96400000D03*
X118350000Y-96400000D03*
%TD*%
D23*
%TO.C,R6*%
X139200000Y-108425000D03*
X139200000Y-106775000D03*
%TD*%
%TO.C,R5*%
X137200000Y-109225000D03*
X137200000Y-107575000D03*
%TD*%
D25*
%TO.C,C3*%
X135425000Y-93600000D03*
X136975000Y-93600000D03*
%TD*%
D29*
%TO.C,U5*%
X120637500Y-103950000D03*
X120637500Y-103000000D03*
X120637500Y-102050000D03*
X118362500Y-102050000D03*
X118362500Y-103000000D03*
X118362500Y-103950000D03*
%TD*%
D30*
%TO.C,J3*%
X150000000Y-92925000D03*
D31*
X152540000Y-92925000D03*
X150000000Y-95465000D03*
X152540000Y-95465000D03*
X150000000Y-98005000D03*
X152540000Y-98005000D03*
X150000000Y-100545000D03*
X152540000Y-100545000D03*
X150000000Y-103085000D03*
X152540000Y-103085000D03*
X150000000Y-105625000D03*
X152540000Y-105625000D03*
X150000000Y-108165000D03*
X152540000Y-108165000D03*
X150000000Y-110705000D03*
X152540000Y-110705000D03*
%TD*%
D28*
%TO.C,U4*%
X141725000Y-94895000D03*
X141725000Y-96165000D03*
X141725000Y-97435000D03*
X141725000Y-98705000D03*
X146675000Y-98705000D03*
X146675000Y-97435000D03*
X146675000Y-96165000D03*
X146675000Y-94895000D03*
%TD*%
D32*
%TO.C,C1*%
X126000000Y-108425000D03*
X126000000Y-109975000D03*
%TD*%
D22*
%TO.C,R3*%
X134800000Y-109175000D03*
X134800000Y-110825000D03*
%TD*%
D33*
%TO.C,U1*%
X134425000Y-103250000D03*
X134425000Y-102750000D03*
X134425000Y-102250000D03*
X134425000Y-101750000D03*
X134425000Y-101250000D03*
X134425000Y-100750000D03*
X134425000Y-100250000D03*
X134425000Y-99750000D03*
X134425000Y-99250000D03*
X134425000Y-98750000D03*
X134425000Y-98250000D03*
X134425000Y-97750000D03*
X134425000Y-97250000D03*
X134425000Y-96750000D03*
X134425000Y-96250000D03*
X134425000Y-95750000D03*
D34*
X132500000Y-93825000D03*
X132000000Y-93825000D03*
X131500000Y-93825000D03*
X131000000Y-93825000D03*
X130500000Y-93825000D03*
X130000000Y-93825000D03*
X129500000Y-93825000D03*
X129000000Y-93825000D03*
X128500000Y-93825000D03*
X128000000Y-93825000D03*
X127500000Y-93825000D03*
X127000000Y-93825000D03*
X126500000Y-93825000D03*
X126000000Y-93825000D03*
X125500000Y-93825000D03*
X125000000Y-93825000D03*
D33*
X123075000Y-95750000D03*
X123075000Y-96250000D03*
X123075000Y-96750000D03*
X123075000Y-97250000D03*
X123075000Y-97750000D03*
X123075000Y-98250000D03*
X123075000Y-98750000D03*
X123075000Y-99250000D03*
X123075000Y-99750000D03*
X123075000Y-100250000D03*
X123075000Y-100750000D03*
X123075000Y-101250000D03*
X123075000Y-101750000D03*
X123075000Y-102250000D03*
X123075000Y-102750000D03*
X123075000Y-103250000D03*
D34*
X125000000Y-105175000D03*
X125500000Y-105175000D03*
X126000000Y-105175000D03*
X126500000Y-105175000D03*
X127000000Y-105175000D03*
X127500000Y-105175000D03*
X128000000Y-105175000D03*
X128500000Y-105175000D03*
X129000000Y-105175000D03*
X129500000Y-105175000D03*
X130000000Y-105175000D03*
X130500000Y-105175000D03*
X131000000Y-105175000D03*
X131500000Y-105175000D03*
X132000000Y-105175000D03*
X132500000Y-105175000D03*
%TD*%
M02*
